<svg width="30" height="21" viewBox="0 0 30 21" fill="none" xmlns="http://www.w3.org/2000/svg">
<path d="M25.7571 8.91429C25.5429 8.91429 25.3714 9 25.2429 9.17143C25.1571 9.3 25.1143 9.42857 25.1143 9.6H26.3571C26.3571 9.42857 26.3143 9.3 26.2286 9.17143C26.1429 9 25.9714 8.91429 25.7571 8.91429ZM26.8286 9.21429C26.7857 9.04286 26.6571 8.87143 26.6143 8.82857C26.4857 8.7 26.4 8.61429 26.2714 8.57143C26.1 8.48571 25.9286 8.48572 25.7571 8.48572C25.5429 8.48572 25.3286 8.52857 25.2 8.61429C25.0286 8.7 24.9 8.78572 24.8143 8.91429C24.7286 9.04286 24.6429 9.21429 24.5571 9.38572C24.5143 9.55714 24.4714 9.72857 24.4714 9.94286C24.4714 10.1571 24.5143 10.3286 24.5571 10.5C24.6 10.6714 24.6857 10.8 24.8143 10.9286C24.9429 11.0571 25.0714 11.1429 25.2429 11.2286C25.4143 11.3143 25.6286 11.3143 25.8857 11.3143C26.4 11.3143 26.6571 11.1857 26.7429 11.1429C26.7429 11.1429 26.7857 11.1 26.7429 11.0571L26.6143 10.7571C26.6143 10.7143 26.5286 10.7143 26.5286 10.7143C26.4 10.7571 26.2286 10.8429 25.8 10.8429C25.5429 10.8429 25.3286 10.7571 25.2 10.6286C25.0714 10.5 25.0286 10.3286 24.9857 10.0714H26.7429C26.7429 10.0714 26.7857 10.0714 26.7857 10.0286C26.9143 9.94286 26.9571 9.6 26.8286 9.21429ZM24.3429 11.0571L24.2143 10.7143C24.2143 10.6714 24.1286 10.6714 24.1286 10.6714C24.0429 10.7143 23.9571 10.7143 23.8714 10.7571C23.7857 10.7571 23.7 10.7571 23.5714 10.7571C23.3143 10.7571 23.1429 10.6714 22.9714 10.5429C22.8429 10.4143 22.7571 10.1571 22.7571 9.85714C22.7571 9.55714 22.8429 9.34286 22.9714 9.17143C23.1 9 23.2714 8.91429 23.5286 8.91429C23.7429 8.91429 23.9143 8.95714 24.0857 9C24.0857 9 24.1286 9 24.1286 8.95714C24.1714 8.82857 24.2143 8.74286 24.2571 8.61429C24.2571 8.57143 24.2571 8.57143 24.2143 8.57143C24.1286 8.52857 24 8.48572 23.8714 8.48572C23.7429 8.48572 23.6143 8.44286 23.4857 8.44286C23.2714 8.44286 23.0571 8.48571 22.9286 8.57143C22.7571 8.65714 22.6286 8.74286 22.5 8.87143C22.3714 9 22.2857 9.12857 22.2429 9.3C22.2429 9.47143 22.2429 9.64286 22.2429 9.85714C22.2429 10.2857 22.3714 10.6286 22.5857 10.8857C22.8 11.1429 23.1429 11.2714 23.6143 11.2714C23.8714 11.2714 24.1286 11.2286 24.3429 11.1429C24.3 11.1429 24.3429 11.1 24.3429 11.0571ZM22.1143 8.52857C22.0714 8.52857 21.9429 8.48572 21.8143 8.48572C21.6 8.48572 21.4714 8.52857 21.3857 8.57143C21.2571 8.61429 21.1714 8.7 21.0857 8.78571V8.57143C21.0857 8.52857 21.0857 8.52857 21.0429 8.52857H20.6143C20.5714 8.52857 20.5714 8.57143 20.5714 8.57143V11.1429C20.5714 11.1857 20.6143 11.1857 20.6143 11.1857H21.0857C21.1286 11.1857 21.1286 11.1429 21.1286 11.1429V9.85714C21.1286 9.68571 21.1286 9.51429 21.1714 9.38572C21.2143 9.25714 21.2571 9.17143 21.3429 9.12857C21.3857 9.08572 21.4714 9.04286 21.5571 9C21.6429 8.95714 21.7286 8.95714 21.7714 8.95714C21.8571 8.95714 21.9429 9 21.9429 9C21.9857 9 21.9857 9 21.9857 8.95714C22.0286 8.87143 22.1143 8.65714 22.1143 8.57143C22.1571 8.57143 22.1143 8.52857 22.1143 8.52857ZM20.0571 9.85714C20.0571 9.64286 20.0143 9.47143 19.9714 9.3C19.9286 9.12857 19.8429 9 19.7571 8.87143C19.6714 8.74286 19.5 8.65714 19.3714 8.57143C19.2 8.48571 19.0286 8.44286 18.8143 8.44286C18.6 8.44286 18.4286 8.48571 18.2571 8.57143C18.0857 8.65714 17.9571 8.74286 17.8714 8.87143C17.7857 9 17.7 9.12857 17.6571 9.3C17.5714 9.47143 17.5286 9.64286 17.5286 9.85714C17.5286 10.0714 17.5714 10.2429 17.6143 10.4143C17.6571 10.5857 17.7429 10.7143 17.8286 10.8429C17.9143 10.9714 18.0857 11.0571 18.2143 11.1429C18.3857 11.2286 18.5571 11.2714 18.7714 11.2714C18.9857 11.2714 19.1571 11.2286 19.3286 11.1429C19.5 11.0571 19.6286 10.9714 19.7143 10.8429C19.8 10.7143 19.8857 10.5857 19.9286 10.4143C20.0143 10.2429 20.0571 10.0714 20.0571 9.85714ZM17.4857 8.57143C17.4857 8.52857 17.4857 8.52857 17.4429 8.52857H16.8857C16.8857 8.52857 16.9286 8.31429 16.9714 8.14286C17.0143 8.05714 17.0571 8.01429 17.1 7.97143C17.1429 7.92857 17.1857 7.88572 17.2286 7.88572C17.2714 7.88572 17.3571 7.84286 17.4 7.84286C17.4429 7.84286 17.4857 7.84286 17.5286 7.84286C17.5714 7.84286 17.6143 7.84286 17.6143 7.88572C17.6571 7.88572 17.7 7.88572 17.7 7.84286L17.8286 7.45714C17.8286 7.41429 17.8286 7.41429 17.7857 7.41429C17.7429 7.41429 17.6571 7.37143 17.6143 7.37143C17.5286 7.37143 17.4429 7.37143 17.3571 7.37143C17.0571 7.37143 16.8 7.45714 16.6286 7.62857C16.4571 7.8 16.3286 8.05714 16.2857 8.4V8.52857H15.9C15.9 8.52857 15.8571 8.52857 15.8571 8.57143L15.8143 8.91429C15.8143 8.95714 15.8143 8.95714 15.8571 8.95714H16.2429L15.8571 11.1429C15.8143 11.3143 15.7714 11.4429 15.7714 11.5714C15.7286 11.7 15.6857 11.7429 15.6429 11.8286C15.6 11.8714 15.5571 11.9143 15.4714 11.9571C15.4286 11.9571 15.3429 12 15.2571 12C15.2143 12 15.1714 12 15.1286 12C15.0857 12 15.0857 12 15.0429 11.9571C15.0429 11.9571 15 11.9571 15 12C15 12.0429 14.8714 12.3 14.8714 12.3429C14.8714 12.3857 14.8714 12.3857 14.9143 12.4286C14.9571 12.4286 15 12.4714 15.0857 12.4714C15.1714 12.5143 15.2571 12.5143 15.3429 12.5143C15.5143 12.5143 15.6429 12.4714 15.7714 12.4286C15.9 12.3857 15.9857 12.3 16.1143 12.2143C16.2 12.0857 16.2857 12 16.3286 11.8286C16.3714 11.6571 16.4571 11.4857 16.5 11.2286L16.8857 9H17.4429C17.4429 9 17.4857 9 17.4857 8.95714V8.57143ZM15.3857 10.4143C15.3857 9.9 14.9571 9.72857 14.5286 9.6H14.4857C14.1857 9.51429 13.9286 9.42857 13.9286 9.21429C13.9286 9.04286 14.1 8.91429 14.3143 8.91429C14.5714 8.91429 14.9143 9 15.0857 9.12857C15.0857 9.12857 15.1286 9.17143 15.1714 9.12857C15.1714 9.08572 15.3 8.82857 15.3 8.78571C15.3 8.74286 15.3 8.74286 15.2571 8.7C15.0429 8.57143 14.7 8.44286 14.3571 8.44286H14.3143C13.7571 8.44286 13.3714 8.78571 13.3714 9.25714C13.3714 9.77143 13.8 9.94286 14.2286 10.0714H14.3143C14.6143 10.1571 14.8714 10.2429 14.8714 10.4571C14.8714 10.6286 14.7 10.8 14.4429 10.8C14.3571 10.8 14.0143 10.8 13.6286 10.5857C13.5857 10.5429 13.5429 10.5429 13.5429 10.5429C13.5429 10.5429 13.5 10.5 13.4571 10.5857L13.3286 10.9286C13.3286 10.9714 13.3286 10.9714 13.3286 11.0143C13.3714 11.0571 13.4571 11.1 13.5 11.1C13.8 11.2714 14.1 11.3143 14.4 11.3143C15 11.2714 15.3857 10.9286 15.3857 10.4143ZM12.9 9.21429C12.8571 9.04286 12.7286 8.87143 12.6857 8.82857C12.5571 8.7 12.4714 8.61429 12.3429 8.57143C12.1714 8.48571 12 8.48572 11.8286 8.48572C11.6143 8.48572 11.4 8.52857 11.2714 8.61429C11.1 8.7 10.9714 8.78572 10.8857 8.91429C10.8 9.04286 10.7143 9.21429 10.6286 9.38572C10.5857 9.55714 10.5429 9.72857 10.5429 9.94286C10.5429 10.1571 10.5857 10.3286 10.6286 10.5C10.6714 10.6714 10.7571 10.8 10.8857 10.9286C11.0143 11.0571 11.1429 11.1429 11.3143 11.2286C11.4857 11.3143 11.7 11.3143 11.9571 11.3143C12.4714 11.3143 12.7286 11.1857 12.8143 11.1429C12.8143 11.1429 12.8571 11.1 12.8143 11.0571L12.6857 10.7571C12.6857 10.7143 12.6 10.7143 12.6 10.7143C12.4714 10.7571 12.3 10.8429 11.8714 10.8429C11.6143 10.8429 11.4 10.7571 11.2714 10.6286C11.1429 10.5 11.1 10.3286 11.0571 10.0714H12.8143C12.8143 10.0714 12.8571 10.0714 12.8571 10.0286C12.9429 9.94286 12.9857 9.6 12.9 9.21429ZM10.0714 7.45714C10.0714 7.41429 10.0714 7.41429 10.0286 7.41429H9.55714C9.51429 7.41429 9.51429 7.45714 9.51429 7.45714V11.1429C9.51429 11.1857 9.51429 11.1857 9.55714 11.1857H10.0286C10.0714 11.1857 10.0714 11.1429 10.0714 11.1429V7.45714ZM8.91429 11.0571V9.47143C8.91429 9.12857 8.82857 8.87143 8.65714 8.7C8.48571 8.52857 8.18571 8.44286 7.84286 8.44286C7.71429 8.44286 7.5 8.44286 7.37143 8.48572C7.37143 8.48572 6.98571 8.57143 6.81429 8.7C6.81429 8.7 6.77143 8.7 6.81429 8.78571L6.94286 9.12857C6.94286 9.17143 6.98571 9.17143 6.98571 9.17143C6.98571 9.17143 6.98571 9.17143 7.02857 9.17143C7.37143 9 7.8 9 7.8 9C7.97143 9 8.14286 9.04286 8.22857 9.12857C8.31428 9.21429 8.35714 9.3 8.35714 9.55714V9.64286C8.22857 9.6 8.05714 9.6 8.05714 9.6C7.97143 9.6 7.88571 9.6 7.8 9.6C7.67143 9.6 7.5 9.6 7.37143 9.64286C7.24286 9.68571 7.11428 9.72857 7.02857 9.81429C6.94286 9.9 6.85714 9.98571 6.77143 10.1143C6.72857 10.2429 6.68571 10.3714 6.68571 10.5C6.68571 10.6714 6.72857 10.8 6.77143 10.8857C6.81429 11.0143 6.9 11.1 6.98571 11.1429C7.07143 11.2286 7.2 11.2714 7.32857 11.3143C7.45714 11.3571 7.62857 11.3571 7.8 11.3571C7.97143 11.3571 8.14286 11.3571 8.31429 11.3143C8.44286 11.2714 8.61429 11.2714 8.74286 11.2286C8.78571 11.2286 8.87143 11.1857 8.87143 11.1857C8.91428 11.1 8.91429 11.0571 8.91429 11.0571ZM6.38571 10.4143C6.38571 9.94286 5.95714 9.77143 5.52857 9.64286H5.48571C5.18571 9.55714 4.92857 9.47143 4.92857 9.25714C4.92857 9.08571 5.1 8.95714 5.31429 8.95714C5.57143 8.95714 5.91428 9.04286 6.08571 9.17143C6.08571 9.17143 6.12857 9.21429 6.17143 9.17143C6.17143 9.12857 6.3 8.87143 6.3 8.82857C6.3 8.78571 6.3 8.78572 6.25714 8.74286C6.04286 8.61429 5.7 8.48572 5.35714 8.48572H5.31429C4.75714 8.48572 4.37143 8.82857 4.37143 9.3C4.37143 9.81428 4.8 9.98571 5.22857 10.1143H5.31429C5.61428 10.2 5.87143 10.2857 5.87143 10.5C5.87143 10.6714 5.7 10.8429 5.44286 10.8429C5.35714 10.8429 5.01429 10.8429 4.62857 10.6286C4.58571 10.5857 4.54286 10.5857 4.54286 10.5857C4.54286 10.5857 4.5 10.5429 4.45714 10.6286L4.32857 10.9714C4.32857 11.0143 4.32857 11.0143 4.32857 11.0571C4.37143 11.1 4.45714 11.1429 4.5 11.1429C4.8 11.3143 5.1 11.3571 5.4 11.3571C6 11.2714 6.38571 10.9286 6.38571 10.4143ZM30 9.38572C30 12.9857 27.0857 15.9 23.5286 15.9C23.1 15.9 22.6714 15.8571 22.2429 15.7714C21.4286 17.2286 19.8857 18.1714 18.1286 18.1714C17.4 18.1714 16.7143 18 16.0714 17.7C15.2571 19.6286 13.3286 21 11.1 21C8.78571 21 6.77143 19.5429 6.04286 17.4857C5.7 17.5714 5.35714 17.6143 5.01429 17.5714C2.22857 17.5714 0 15.3 0 12.5143C0 10.6286 1.02857 9 2.52857 8.14286C2.22857 7.41429 2.05714 6.64286 2.05714 5.82857C2.05714 2.61428 4.67143 0 7.88571 0C9.77143 0 11.4429 0.9 12.5143 2.27143C13.5 1.28571 14.8286 0.642857 16.3286 0.642857C18.3 0.642857 20.0571 1.75714 20.9571 3.38572C21.7714 3 22.6714 2.82857 23.5714 2.82857C27.0857 2.87143 30 5.78572 30 9.38572ZM18.8143 8.91429C18.6 8.91429 18.4286 9 18.3 9.17143C18.1714 9.34286 18.1286 9.55714 18.1286 9.85714C18.1286 10.1571 18.1714 10.3714 18.3 10.5429C18.3857 10.7143 18.5571 10.8 18.8143 10.8C19.0286 10.8 19.2 10.7143 19.3286 10.5429C19.4571 10.3714 19.5 10.1571 19.5 9.85714C19.5 9.55714 19.4571 9.34286 19.3286 9.17143C19.2 9 19.0286 8.91429 18.8143 8.91429ZM11.7857 8.91429C11.5714 8.91429 11.4 9 11.2714 9.17143C11.1857 9.3 11.1429 9.42857 11.1429 9.6H12.3857C12.3857 9.42857 12.3429 9.3 12.2571 9.17143C12.1714 9 12.0429 8.91429 11.7857 8.91429ZM8.35714 10.7571C8.35714 10.7571 8.14286 10.8 7.88571 10.8C7.54286 10.8 7.37143 10.7143 7.37143 10.7143C7.28571 10.6714 7.28571 10.6286 7.28571 10.6286C7.24286 10.5429 7.24286 10.5 7.24286 10.3714C7.24286 10.2 7.28571 10.1143 7.41429 10.0286C7.41429 10.0286 7.58571 9.9 7.92857 9.9C8.1 9.9 8.22857 9.9 8.4 9.94286V10.7571H8.35714Z" fill="#00A1E0"/>
</svg>
