<svg width="29" height="29" viewBox="0 0 29 29" fill="none" xmlns="http://www.w3.org/2000/svg">
<path d="M0 19.612L14.5 13.959L29 19.612L14.5 26.1178L0 19.612Z" fill="#648C1A"/>
<path d="M0 12.6342L14.5 6.97949L29 12.6342L14.5 19.14L0 12.6342Z" fill="#E75300"/>
<path d="M0 5.65459L14.5 0L29 5.65459L14.5 12.1604L0 5.65459Z" fill="#007CBA"/>
<path d="M14.5 28.9999L0 23.3438V19.6133L14.5 25.268L29 19.6133V23.3438L14.5 28.9999Z" fill="#B2D235"/>
<path d="M0 16.3646V12.6343L14.5 18.2904L29 12.6343V16.3646L14.5 22.0209L0 16.3646Z" fill="#FF8300"/>
<path d="M0 9.38679V5.65479L14.5 11.3094L29 5.65479V9.38679L14.5 15.0414L0 9.38679Z" fill="#009BDE"/>
</svg>
