<svg width="29" height="29" viewBox="0 0 29 29" fill="none" xmlns="http://www.w3.org/2000/svg">
<path d="M0.170166 16.6684C0.595386 19.815 2.12618 22.6215 4.25228 24.7476L9.18483 19.815C9.18483 14.7974 11.8212 9.94992 16.4136 7.22852L0.170166 16.6684Z" fill="#9B65C3"/>
<path d="M9.18483 19.8151C6.71855 19.8151 4.25228 19.2198 1.95609 17.8591C1.36078 17.5189 0.765474 17.0937 0.170166 16.6685C0.595386 19.8151 2.12618 22.6215 4.25228 24.7476L9.18483 19.8151Z" fill="#9B65C3"/>
<path d="M9.18475 19.8152L4.2522 24.7477C6.3783 26.8738 9.18475 28.4046 12.3314 28.8298L21.7713 12.5864C19.0499 17.1788 14.2023 19.8152 9.18475 19.8152Z" fill="#BE63C5"/>
<path d="M11.1408 27.0442C9.78006 24.748 9.18475 22.2817 9.18475 19.8154L4.2522 24.748C6.3783 26.8741 9.18475 28.4049 12.3314 28.8301C11.9062 28.3198 11.4809 27.7245 11.1408 27.0442Z" fill="#BF63C6"/>
<path d="M27.6393 0.765625L16.4135 7.22897C11.7361 9.95038 6.29326 9.69524 1.95601 7.22897C0.680352 9.35507 0 11.8213 0 14.5428C0 15.3081 0.085044 15.9885 0.170088 16.6689C0.765396 17.0941 1.3607 17.5193 1.95601 17.8595C4.2522 19.2202 6.71848 19.8155 9.18475 19.8155L27.8944 1.1058C27.8094 0.935713 27.7243 0.850669 27.6393 0.765625Z" fill="#3278B1"/>
<path d="M1.95609 17.859C4.25228 19.2197 6.71855 19.815 9.18483 19.815C9.18483 14.7974 11.8212 9.94992 16.4136 7.22852L0.170166 16.6684C0.68043 17.0936 1.27574 17.5188 1.95609 17.859Z" fill="#3278B2"/>
<path d="M1.95601 7.22852C0.680352 9.35462 0 11.8209 0 14.5423C0 15.3077 0.085044 15.988 0.170088 16.6684L16.4135 7.22852C11.8211 9.94992 6.29326 9.77984 1.95601 7.22852Z" fill="#45A4EC"/>
<path d="M27.8943 1.10557C27.8093 1.02053 27.7242 0.935484 27.5541 0.85044C27.384 0.765396 27.299 0.595308 27.1289 0.510264C26.6187 0.170088 25.9383 0 25.343 0H14.4574C9.09959 0 4.42217 2.8915 1.87085 7.22874C6.20809 9.69501 11.736 9.95015 16.3283 7.22874C11.6509 9.95015 9.09959 14.7977 9.09959 19.8153C14.1172 19.8153 18.9647 17.1789 21.6861 12.5865L28.1494 1.3607C28.1494 1.27566 28.0644 1.19062 27.8943 1.10557Z" fill="#19BB7D"/>
<path d="M16.4135 7.22881L27.6393 0.765469C27.4693 0.680425 27.3842 0.510337 27.2141 0.425293L1.95605 7.22881C6.2933 9.78013 11.8212 9.95022 16.4135 7.22881Z" fill="#08C7FB"/>
<path d="M25.343 0H14.4574C9.09959 0 4.42217 2.8915 1.87085 7.22874L27.1289 0.42522C26.6187 0.170088 26.0233 0 25.343 0Z" fill="#59F2F6"/>
<path d="M21.7712 12.5865L28.2346 1.36068C28.1495 1.27564 28.0645 1.1906 27.9795 1.02051L9.26978 19.7302C9.26978 22.1965 9.86508 24.6627 11.2258 26.9589C11.566 27.5542 11.9912 28.1495 12.4164 28.7449C13.0968 28.8299 13.8622 28.9149 14.5425 28.9149C17.1789 28.9149 19.6451 28.2346 21.7712 26.9589C19.2199 22.7067 19.0498 17.1789 21.7712 12.5865Z" fill="#DA3757"/>
<path d="M9.18481 19.8152C9.18481 22.2814 9.78012 24.7477 11.1408 27.0439C11.481 27.6392 11.9062 28.2345 12.3314 28.8298L21.7713 12.5864C19.0499 17.1788 14.2024 19.8152 9.18481 19.8152Z" fill="#D33C4E"/>
<path d="M21.7712 12.5864L12.3313 28.8298C13.0117 28.9149 13.777 28.9999 14.4574 28.9999C17.0938 28.9999 19.56 28.3196 21.6861 27.0439C19.2199 22.7067 19.0498 17.1788 21.7712 12.5864Z" fill="#EE5A24"/>
<path d="M28.4896 1.78615C28.4046 1.61606 28.3195 1.44598 28.1495 1.36093C28.0644 1.27589 27.9794 1.19084 27.8943 1.02076C27.8093 0.935713 27.7242 0.850669 27.5542 0.765625L16.3283 7.22897C11.6509 9.95038 9.09961 14.7979 9.09961 19.8155C14.1172 19.8155 18.9647 17.1791 21.6861 12.5867C18.9647 17.2642 19.2198 22.707 21.6861 27.0442C26.0234 24.5779 28.9149 19.8155 28.9149 14.4577V3.65712C28.9999 2.97677 28.8298 2.38146 28.4896 1.78615Z" fill="#8BDF55"/>
<path d="M27.6394 0.765625L16.4136 7.22897C11.7361 9.95038 9.18481 14.7979 9.18481 19.8155L27.8945 1.1058C27.8095 0.935713 27.7244 0.850669 27.6394 0.765625Z" fill="#25C16F"/>
<path d="M9.18481 19.8152C14.2024 19.8152 19.0499 17.1789 21.7713 12.5865L28.2347 1.36068C28.1496 1.27564 28.0646 1.1906 27.9795 1.02051L9.18481 19.8152Z" fill="#8BDF55"/>
<path d="M28.2346 1.36084L21.7713 12.5866C19.0499 17.2641 19.305 22.7069 21.7713 27.0441L28.5748 1.78606C28.4047 1.70102 28.3197 1.53093 28.2346 1.36084Z" fill="#FFBB00"/>
<path d="M21.7712 27.0441C26.1085 24.5778 29 19.8154 29 14.4576V3.65702C29 2.97667 28.8299 2.38136 28.4897 1.87109L21.7712 27.0441Z" fill="#FFA800"/>
</svg>
