<svg width="28" height="28" viewBox="0 0 28 28" fill="none" xmlns="http://www.w3.org/2000/svg">
<path fill-rule="evenodd" clip-rule="evenodd" d="M13.9984 0.0144861C16.5706 0.0144861 19.1436 -0.0248886 21.7149 0.0261936C24.0295 0.0721088 25.9134 0.989562 27.13 3.04469C27.7639 4.11559 27.9829 5.30349 27.9855 6.52489C27.9965 11.5822 28.0179 16.6398 27.9708 21.6966C27.9488 24.0504 26.9884 25.958 24.8797 27.1685C23.8222 27.7755 22.6538 27.982 21.4557 27.9845C16.3984 27.9945 11.3409 28.0108 6.28396 27.9706C4.2217 27.9542 2.46175 27.186 1.20497 25.4715C0.531089 24.5521 0.180315 23.5077 0.0782815 22.3802C0.0332166 21.8825 0.0119598 21.3809 0.0116981 20.881C0.00921271 16.02 -0.0226403 11.1585 0.0306658 6.29786C0.0581364 3.79398 1.12334 1.82284 3.43931 0.66482C4.45389 0.157464 5.55455 0.013374 6.67384 0.00984206C9.11533 0.00225494 11.5568 0.00748748 13.9983 0.00748748C13.9984 0.00990751 13.9984 0.0121969 13.9984 0.0144861ZM8.76802 22.7002C9.95782 22.7002 11.1061 22.7002 12.3039 22.7002C12.3039 20.7726 12.3039 18.8676 12.3039 17.0427C12.8899 17.3211 13.4419 17.6717 14.045 17.8543C16.3392 18.5492 18.8071 17.5384 20.1038 15.4161C21.0596 13.8517 21.2889 12.1335 21.1031 10.3465C20.9546 8.91777 20.4717 7.61828 19.5144 6.51436C17.782 4.51672 14.1971 3.997 12.1339 6.28027C12.0984 6.31951 12.0554 6.35195 12.0121 6.39087C11.7437 5.74597 11.5638 5.51417 11.1139 5.38349C10.8148 5.29663 10.4944 5.25136 10.1824 5.24541C9.26713 5.22769 8.35132 5.239 7.43576 5.23894C7.30881 5.23894 7.18185 5.23894 7.03822 5.23894C7.03822 6.42861 7.03822 7.57754 7.03822 8.76185C7.47029 8.76185 7.88163 8.76145 8.29284 8.76191C8.7671 8.76244 8.76795 8.76276 8.76795 9.22538C8.76822 13.5636 8.76815 17.9018 8.76815 22.24C8.76802 22.3805 8.76802 22.5209 8.76802 22.7002Z" fill="#017737"/>
<path fill-rule="evenodd" clip-rule="evenodd" d="M8.76789 22.7002C8.76789 22.521 8.76789 22.3805 8.76789 22.2401C8.76789 17.9019 8.76796 13.5637 8.7677 9.22552C8.7677 8.7629 8.76685 8.76258 8.29259 8.76205C7.88138 8.7616 7.4701 8.76199 7.03796 8.76199C7.03796 7.57768 7.03796 6.42875 7.03796 5.23908C7.1816 5.23908 7.30855 5.23908 7.4355 5.23908C8.35106 5.23914 9.26688 5.22783 10.1822 5.24555C10.4942 5.25157 10.8145 5.29677 11.1137 5.38363C11.5636 5.51431 11.7434 5.74611 12.0118 6.39101C12.0551 6.35203 12.0982 6.31959 12.1336 6.28041C14.1969 3.99715 17.7817 4.51686 19.5141 6.5145C20.4715 7.61843 20.9544 8.91792 21.1028 10.3467C21.2887 12.1336 21.0594 13.8518 20.1036 15.4162C18.8068 17.5386 16.339 18.5494 14.0447 17.8544C13.4417 17.6718 12.8896 17.3212 12.3037 17.0428C12.3037 18.8677 12.3037 20.7727 12.3037 22.7003C11.106 22.7002 9.9577 22.7002 8.76789 22.7002ZM17.952 11.3509C17.9509 10.7374 17.8486 10.0392 17.5117 9.39813C16.9956 8.41566 16.1916 7.88247 15.0619 7.91158C13.9434 7.94036 13.1092 8.45922 12.6681 9.4844C12.122 10.7536 12.1217 12.0552 12.701 13.3194C13.1575 14.3155 13.9486 14.882 15.0657 14.8787C16.2029 14.8754 17.038 14.3384 17.5536 13.322C17.8509 12.736 17.9446 12.1033 17.952 11.3509Z" fill="white"/>
<path fill-rule="evenodd" clip-rule="evenodd" d="M17.9521 11.3506C17.9447 12.103 17.851 12.7358 17.5538 13.3217C17.0381 14.3381 16.2031 14.8751 15.0659 14.8784C13.9487 14.8817 13.1576 14.3153 12.7012 13.3191C12.1218 12.0549 12.1221 10.7533 12.6683 9.48411C13.1093 8.45894 13.9436 7.94013 15.062 7.91129C16.1917 7.88218 16.9957 8.41531 17.5119 9.39784C17.8487 10.0389 17.951 10.7371 17.9521 11.3506Z" fill="#017737"/>
</svg>
