<svg width="29" height="30" viewBox="0 0 29 30" fill="none" xmlns="http://www.w3.org/2000/svg">
<path d="M21.6985 9.74161V6.21846C22.1641 6.00086 22.5583 5.6555 22.8352 5.22258C23.1122 4.78965 23.2605 4.28698 23.2628 3.77306V3.69222C23.2628 2.19382 22.0481 0.979115 20.5499 0.979115H20.4689C18.9705 0.979115 17.7558 2.19382 17.7558 3.69222V3.77306C17.7582 4.28698 17.9064 4.78965 18.1834 5.22258C18.4603 5.6555 18.8545 6.00086 19.3201 6.21846V9.74161C17.982 9.94653 16.7218 10.5014 15.667 11.35L6.0046 3.82392C6.0735 3.57521 6.10944 3.31944 6.1135 3.06272C6.11468 2.45807 5.93651 1.86665 5.60152 1.36327C5.26653 0.859889 4.78978 0.467167 4.23157 0.234778C3.67335 0.00238847 3.05876 -0.0592273 2.46552 0.0577241C1.87229 0.174675 1.32706 0.46494 0.898811 0.891801C0.470563 1.31866 0.178532 1.86294 0.0596573 2.4558C-0.0592175 3.04865 0.000404719 3.66344 0.230982 4.22241C0.46156 4.78137 0.852734 5.2594 1.35502 5.59602C1.85731 5.93263 2.44815 6.11272 3.05281 6.1135C3.58177 6.11101 4.10082 5.96979 4.55814 5.70395L14.0729 13.1079C12.3236 15.7504 12.3704 19.1944 14.1907 21.7886L11.2968 24.6833C11.0628 24.6085 10.8192 24.5688 10.5736 24.5654C9.18769 24.5666 8.06493 25.6906 8.06528 27.0765C8.06564 28.4623 9.18912 29.5857 10.5749 29.586C11.9609 29.5864 13.0848 28.4636 13.086 27.0777C13.0827 26.8321 13.043 26.5884 12.968 26.3546L15.8309 23.4907C18.3889 25.4599 21.9021 25.6296 24.638 23.916C27.3738 22.2023 28.7545 18.9671 28.099 15.8063C27.4434 12.6453 24.8902 10.226 21.6985 9.74149M20.5119 21.329C19.983 21.3432 19.4566 21.2513 18.9638 21.0587C18.471 20.8662 18.0218 20.5768 17.6427 20.2078C17.2636 19.8387 16.9622 19.3974 16.7565 18.91C16.5507 18.4226 16.4447 17.8988 16.4447 17.3698C16.4447 16.8407 16.5507 16.3169 16.7565 15.8295C16.9622 15.3421 17.2636 14.9008 17.6427 14.5317C18.0218 14.1627 18.471 13.8733 18.9638 13.6808C19.4566 13.4882 19.983 13.3963 20.5119 13.4105C22.6433 13.4852 24.3328 15.2341 24.334 17.3669C24.335 19.4995 22.6472 21.2502 20.5158 21.3269" fill="#FF7A59"/>
</svg>
