<?xml version="1.0" encoding="UTF-8"?>
<svg xmlns="http://www.w3.org/2000/svg" width="29" height="18" viewBox="0 0 29 18" fill="none">
  <path d="M22.2068 17.9969C16.7279 17.9969 11.2738 18.0073 5.81976 17.9899C4.36944 17.9853 3.04422 17.5185 1.9033 16.615C1.0097 15.9074 0.356488 15.0117 0.104853 13.8787C-0.041824 13.2182 -0.0245183 12.5444 0.0943031 11.8763C0.26978 10.8897 0.725566 10.027 1.33709 9.25544C1.93541 8.50056 2.68959 7.92906 3.60866 7.59521C3.66974 7.57302 3.74649 7.47457 3.74384 7.41478C3.71579 6.78058 3.80511 6.15921 3.95477 5.54816C4.03845 5.2065 4.15813 4.87067 4.29253 4.54498C4.70047 3.55642 5.29134 2.68714 6.08128 1.96514C7.06027 1.07035 8.18563 0.436203 9.50029 0.192233C10.0508 0.0900703 10.6135 0.001793 11.1709 3.4968e-05C12.1409 -0.0030257 13.0816 0.194871 13.9819 0.578679C14.7121 0.889937 15.3625 1.31334 15.9667 1.82546C16.7628 2.50015 17.341 3.33037 17.7975 4.25661C17.8043 4.27044 17.821 4.2794 17.8391 4.29617C19.061 3.60163 20.3281 3.45508 21.6104 4.10036C22.8962 4.74741 23.5547 5.83049 23.6738 7.27774C23.9581 7.33593 24.2699 7.37869 24.569 7.46514C25.2802 7.67069 25.9383 7.99122 26.5188 8.45603C27.2403 9.03374 27.8539 9.71059 28.273 10.5375C28.6355 11.2529 28.8275 12.0114 28.8341 12.8302C28.842 13.8044 28.5769 14.6736 28.0254 15.4605C27.3597 16.4102 26.4634 17.0684 25.3932 17.503C24.7571 17.7614 24.1048 17.9327 23.4145 17.9488C23.0201 17.9579 22.626 17.9804 22.2068 17.9969ZM10.3772 8.60616C10.4569 9.01095 10.5376 9.41554 10.6161 9.82056C10.9317 11.4488 11.2454 13.0774 11.5668 14.7046C11.5783 14.7632 11.6608 14.8499 11.7127 14.8517C12.0841 14.8644 12.456 14.8585 12.8461 14.8585C13.1302 13.1851 13.4113 11.5289 13.6924 9.8728C13.7072 9.87394 13.7219 9.87508 13.7367 9.87622C14.0217 11.5361 14.3067 13.1959 14.5907 14.8502C15.0298 14.8502 15.4264 14.8502 15.8474 14.8502C16.2941 12.6034 16.74 10.3604 17.1881 8.1071C16.8097 8.1071 16.4651 8.1071 16.1099 8.1071C15.8209 9.83531 15.534 11.5513 15.2471 13.2674C15.134 12.8465 15.0634 12.4319 14.9924 12.0173C14.7762 10.7562 14.5613 9.49483 14.3392 8.23476C14.3298 8.1817 14.2549 8.1014 14.2084 8.09985C13.8627 8.08838 13.5165 8.09363 13.1688 8.09363C12.8738 9.83347 12.5835 11.5454 12.2933 13.2574C12.1937 12.869 12.1246 12.4799 12.0589 12.0902C11.8418 10.804 11.6272 9.51737 11.4049 8.23204C11.3959 8.17992 11.3209 8.10138 11.2742 8.09968C10.9539 8.08801 10.6329 8.09355 10.2949 8.09355C10.3233 8.2707 10.3467 8.41696 10.3772 8.60616ZM8.72478 8.41826C8.64699 8.31259 8.74359 8.09109 8.50366 8.09233C8.08982 8.09448 7.67595 8.09293 7.24342 8.09293C6.60373 10.3435 5.96657 12.5852 5.3205 14.8582C5.68646 14.8582 6.01664 14.865 6.34597 14.8512C6.3975 14.849 6.47254 14.7612 6.49015 14.6997C6.61264 14.2716 6.72789 13.8412 6.83424 13.4088C6.87158 13.257 6.9349 13.1922 7.10208 13.1958C7.61589 13.2068 8.13033 13.2087 8.64402 13.1949C8.82493 13.1901 8.88793 13.2613 8.92438 13.4217C9.01943 13.8399 9.12248 14.2565 9.23452 14.6704C9.25372 14.7413 9.3304 14.8471 9.38486 14.8498C9.72017 14.8665 10.0567 14.8582 10.4207 14.8582C9.85079 12.7007 9.29056 10.5799 8.72478 8.41826ZM21.8157 12.0016C21.5762 11.5681 21.1704 11.3543 20.7334 11.1808C20.3276 11.0197 19.913 10.8765 19.5199 10.6886C19.048 10.463 18.8766 10.1132 18.9257 9.59582C18.9772 9.05336 19.3151 8.77768 19.9141 8.7895C20.4304 8.79969 20.736 9.10075 20.763 9.62777C20.767 9.70753 20.7635 9.78767 20.7635 9.87074C21.1425 9.87074 21.4934 9.87074 21.8425 9.87074C21.9253 8.8589 21.4909 8.20181 20.5784 8.02448C20.2286 7.95648 19.8529 7.96171 19.4962 7.99985C18.5417 8.10188 17.9734 8.6405 17.8513 9.59803C17.7374 10.4919 18.0185 11.1734 18.9092 11.5783C19.2986 11.7552 19.7087 11.8882 20.1139 12.0283C20.6085 12.1993 20.8954 12.519 20.9438 13.0557C20.9937 13.6085 20.6621 14.0589 20.102 14.1571C19.5063 14.2616 18.984 13.9363 18.8768 13.3837C18.8379 13.1833 18.8257 12.9778 18.8014 12.7752C18.4465 12.7752 18.0962 12.7752 17.7187 12.7752C17.7406 13.0121 17.7529 13.2259 17.7812 13.4377C17.8824 14.193 18.3882 14.7471 19.1272 14.9124C19.6282 15.0244 20.1327 15.0109 20.6285 14.894C21.2169 14.7553 21.6799 14.4345 21.8836 13.843C22.0912 13.2402 22.1147 12.6291 21.8157 12.0016Z" fill="#F7981F"></path>
  <path d="M10.3736 8.58522C10.3467 8.4175 10.3233 8.27124 10.2949 8.09409C10.6329 8.09409 10.9539 8.08855 11.2742 8.10022C11.3209 8.10192 11.3959 8.18046 11.4049 8.23258C11.6271 9.51791 11.8418 10.8046 12.0588 12.0908C12.1246 12.4804 12.1937 12.8695 12.2933 13.2579C12.5835 11.546 12.8738 9.83401 13.1687 8.09417C13.5165 8.09417 13.8627 8.08892 14.2084 8.10039C14.2549 8.10194 14.3298 8.18224 14.3392 8.2353C14.5613 9.49537 14.7762 10.7567 14.9924 12.0178C15.0634 12.4324 15.134 12.8471 15.2471 13.2679C15.534 11.5519 15.8209 9.83585 16.1099 8.10764C16.4651 8.10764 16.8097 8.10764 17.1881 8.10764C16.74 10.3609 16.2941 12.604 15.8473 14.8508C15.4264 14.8508 15.0298 14.8508 14.5907 14.8508C14.3067 13.1965 14.0217 11.5366 13.7367 9.87676C13.7219 9.87562 13.7072 9.87448 13.6924 9.87334C13.4113 11.5295 13.1301 13.1856 12.8461 14.859C12.456 14.859 12.084 14.8649 11.7127 14.8522C11.6608 14.8504 11.5783 14.7637 11.5667 14.7051C11.2454 13.078 10.9317 11.4494 10.616 9.8211C10.5375 9.41608 10.4568 9.01149 10.3736 8.58522Z" fill="#FFFEFD"></path>
  <path d="M8.72737 8.43913C9.29037 10.5804 9.85061 12.7012 10.4205 14.8587C10.0565 14.8587 9.71998 14.867 9.38467 14.8503C9.33022 14.8476 9.25353 14.7418 9.23433 14.6708C9.12229 14.2569 9.01924 13.8403 8.92419 13.4222C8.88775 13.2618 8.82474 13.1905 8.64383 13.1954C8.13015 13.2092 7.61571 13.2072 7.10189 13.1962C6.93472 13.1927 6.87139 13.2574 6.83406 13.4092C6.72771 13.8416 6.61245 14.272 6.48996 14.7002C6.47236 14.7617 6.39732 14.8495 6.34578 14.8516C6.01646 14.8654 5.68627 14.8587 5.32031 14.8587C5.96639 12.5856 6.60354 10.344 7.24324 8.09337C7.67577 8.09337 8.08963 8.09493 8.50348 8.09278C8.7434 8.09153 8.6468 8.31304 8.72737 8.43913ZM8.6441 12.1817C8.40379 11.1455 8.16348 10.1092 7.92317 9.07295C7.90947 9.0722 7.89577 9.07144 7.88207 9.07068C7.62245 10.1474 7.36282 11.2241 7.09723 12.3256C7.60644 12.3256 8.07826 12.3279 8.54995 12.3211C8.58684 12.3206 8.62281 12.2563 8.6441 12.1817Z" fill="#FFFEFC"></path>
  <path d="M21.8266 12.0176C22.1148 12.6297 22.0912 13.2408 21.8836 13.8437C21.6799 14.4352 21.2169 14.7559 20.6286 14.8946C20.1327 15.0115 19.6283 15.0251 19.1273 14.913C18.3882 14.7478 17.8825 14.1936 17.7813 13.4383C17.7529 13.2266 17.7406 13.0127 17.7188 12.7758C18.0962 12.7758 18.4466 12.7758 18.8015 12.7758C18.8258 12.9785 18.8379 13.184 18.8768 13.3843C18.984 13.937 19.5063 14.2622 20.1021 14.1578C20.6621 14.0596 20.9937 13.6092 20.9439 13.0563C20.8955 12.5196 20.6086 12.1999 20.1139 12.0289C19.7088 11.8888 19.2986 11.7558 18.9093 11.5789C18.0185 11.174 17.7374 10.4925 17.8514 9.59866C17.9735 8.64113 18.5418 8.10251 19.4962 8.00048C19.853 7.96234 20.2286 7.95711 20.5785 8.0251C21.4909 8.20244 21.9253 8.85953 21.8425 9.87137C21.4934 9.87137 21.1425 9.87137 20.7636 9.87137C20.7636 9.7883 20.7671 9.70816 20.763 9.6284C20.7361 9.10138 20.4304 8.80032 19.9141 8.79013C19.3151 8.77831 18.9772 9.05399 18.9257 9.59645C18.8766 10.1139 19.048 10.4636 19.52 10.6892C19.9131 10.8771 20.3276 11.0203 20.7334 11.1814C21.1705 11.355 21.5762 11.5687 21.8266 12.0176Z" fill="#FFFEFD"></path>
  <path d="M8.65208 12.2013C8.62323 12.2559 8.58726 12.3202 8.55037 12.3207C8.07868 12.3275 7.60686 12.3252 7.09766 12.3252C7.36324 11.2238 7.62287 10.147 7.8825 9.07031C7.89619 9.07107 7.90989 9.07182 7.92359 9.07258C8.1639 10.1088 8.40421 11.1451 8.65208 12.2013Z" fill="#F7981F"></path>
</svg>
