<?xml version="1.0" encoding="UTF-8"?>
<svg xmlns="http://www.w3.org/2000/svg" width="28" height="23" viewBox="0 0 28 23" fill="none">
  <g clip-path="url(#clip0_1960_2209)">
    <path d="M9.34029 0.0230696H17.6159L9.02494 22.1947C8.98101 22.3079 8.91708 22.4145 8.83545 22.5106C8.75399 22.6068 8.65575 22.6911 8.54423 22.7608C8.4327 22.8305 8.30964 22.8846 8.17888 22.9211C8.04813 22.9577 7.91178 22.9765 7.77473 22.9765H1.33419C1.12512 22.9765 0.918853 22.9333 0.73286 22.8499C0.546669 22.7668 0.385946 22.6462 0.264031 22.4981C0.142036 22.3501 0.0622277 22.1789 0.0311896 21.9987C7.41409e-05 21.8185 0.0189532 21.6344 0.0857289 21.4618L8.08973 0.804326C8.13343 0.691109 8.19741 0.584588 8.27922 0.488415C8.36068 0.392241 8.45927 0.307937 8.57045 0.238242C8.68197 0.168547 8.80504 0.114373 8.93579 0.0778519C9.06655 0.0413304 9.2029 0.0224609 9.33994 0.0224609V0.0227653L9.34029 0.0230696Z" fill="url(#paint0_linear_1960_2209)"></path>
    <path d="M24.5955 22.9764H17.1645C17.0817 22.9764 16.9988 22.9697 16.917 22.956C16.8356 22.9427 16.7555 22.9226 16.6782 22.8961C16.601 22.8696 16.5268 22.8367 16.4566 22.7984C16.3864 22.7598 16.3205 22.7156 16.2597 22.6663L7.82712 15.8106C7.73793 15.7381 7.67581 15.644 7.64881 15.5404C7.62185 15.4367 7.63133 15.3285 7.67604 15.2296C7.72075 15.1308 7.79861 15.0459 7.89949 14.9861C8.00052 14.9265 8.11974 14.8945 8.24176 14.8945H21.3648L24.5948 22.9767L24.5955 22.9764Z" fill="#0078D4"></path>
    <path d="M17.6453 0.0234518L11.8522 14.8965L21.3176 14.8947L24.5644 22.9769H17.1614C17.0848 22.9763 17.0083 22.9702 16.9328 22.9584C16.8573 22.9465 16.7831 22.9291 16.7111 22.906C16.5667 22.8602 16.4324 22.7932 16.314 22.7079L10.6216 18.083L9.02805 22.1741C8.9868 22.2763 8.93016 22.3734 8.85954 22.4626C8.718 22.642 8.52439 22.7855 8.29841 22.8786C8.18591 22.9249 8.06681 22.958 7.94426 22.9769H1.33765C1.12648 22.9775 0.918116 22.9337 0.730375 22.8491C0.542605 22.7646 0.380975 22.6419 0.259149 22.4915C0.137322 22.3411 0.0588797 22.1674 0.0304529 21.9851C0.00212909 21.8026 0.0245503 21.6169 0.0958303 21.4436L8.0869 0.820229C8.1285 0.704882 8.19108 0.596231 8.27219 0.498231C8.35295 0.400232 8.45154 0.313798 8.56342 0.242581C8.6753 0.171364 8.79976 0.115973 8.93156 0.0788427C9.06336 0.0417125 9.20146 0.0228431 9.34026 0.0234518H17.6456H17.6453Z" fill="url(#paint1_linear_1960_2209)"></path>
    <path d="M27.9143 21.4622C27.9811 21.6348 27.9999 21.8188 27.9692 21.999C27.9381 22.1792 27.8585 22.3503 27.7367 22.4985C27.6148 22.6464 27.4541 22.767 27.268 22.8502C27.0819 22.9334 26.8758 22.9768 26.6666 22.9769H17.4431C17.6522 22.9769 17.8584 22.9334 18.0448 22.8503C18.2308 22.7672 18.3916 22.6464 18.5136 22.4985C18.6356 22.3506 18.7153 22.1792 18.7465 21.999C18.7776 21.8189 18.7587 21.6347 18.6919 21.4622L10.6876 0.804085C10.5995 0.57652 10.4316 0.378746 10.2075 0.23861C10.0964 0.168915 9.97331 0.115046 9.8429 0.0785241C9.7125 0.0420026 9.57615 0.0234375 9.43945 0.0234375H18.6626C18.7996 0.0234375 18.9356 0.0420026 19.0664 0.0785241C19.1968 0.115046 19.3198 0.169219 19.4313 0.23861C19.5425 0.308305 19.6408 0.392609 19.7222 0.488478C19.8037 0.584347 19.8673 0.690868 19.9114 0.804085L27.9157 21.4622H27.9143Z" fill="url(#paint2_linear_1960_2209)"></path>
  </g>
  <defs>
    <linearGradient id="paint0_linear_1960_2209" x1="12.3606" y1="1.72436" x2="5.67661" y2="24.4059" gradientUnits="userSpaceOnUse">
      <stop stop-color="#114A8B"></stop>
      <stop offset="1" stop-color="#0669BC"></stop>
    </linearGradient>
    <linearGradient id="paint1_linear_1960_2209" x1="15.0417" y1="12.0299" x2="13.1159" y2="12.7803" gradientUnits="userSpaceOnUse">
      <stop stop-opacity="0.3"></stop>
      <stop offset="0.1" stop-opacity="0.2"></stop>
      <stop offset="0.3" stop-opacity="0.1"></stop>
      <stop offset="0.6" stop-opacity="0.1"></stop>
      <stop offset="1" stop-opacity="0"></stop>
    </linearGradient>
    <linearGradient id="paint2_linear_1960_2209" x1="13.9442" y1="1.07952" x2="21.3182" y2="23.6461" gradientUnits="userSpaceOnUse">
      <stop stop-color="#3CCBF4"></stop>
      <stop offset="1" stop-color="#2892DF"></stop>
    </linearGradient>
    <clipPath id="clip0_1960_2209">
      <rect width="28" height="23" fill="white"></rect>
    </clipPath>
  </defs>
</svg>
