<?xml version="1.0" encoding="UTF-8"?>
<svg xmlns="http://www.w3.org/2000/svg" width="26" height="28" viewBox="0 0 26 28" fill="none">
  <path d="M6.78033 12.9119L5.49659 5.25915L0.295898 2.37695L1.84513 9.57255L6.78033 12.9119ZM7.99745 21.1411L7.17856 15.7146L2.55312 12.2759L3.7482 17.6427L7.99745 21.1411ZM4.32365 19.9286L5.14254 24.0033L9.08193 27.6808L8.52862 23.5263L4.32365 19.9286ZM16.0754 18.6762L14.0505 17.3247C14.0505 17.3247 14.0216 17.8087 13.9675 17.8415L12.4902 18.7757L14.1057 19.9683L14.1999 21.325L16.1197 22.7313L16.0755 18.6763L16.0754 18.6762ZM22.1948 14.7108L21.8296 18.5322L20.4686 17.7272C20.4686 17.7272 20.6186 15.7951 20.6179 15.7941C20.61 15.7812 17.9953 14.2039 17.9953 14.2039L18.0783 12.4448L22.1948 14.7108Z" fill="#004711"></path>
  <path d="M13.575 9.7518L13.1988 2.63574L5.49707 5.25952L6.78061 12.9123L13.575 9.7518ZM13.9292 17.822L13.6193 12.3955L7.17904 15.7149L8.13068 21.2806L13.9292 17.822ZM14.0398 20.0284L8.529 23.5267L9.21516 27.8003L14.2389 24.2026L14.0398 20.0284ZM16.1644 18.6568L16.2528 22.7913L20.2366 19.8892L20.4356 15.9535L16.1644 18.6568ZM25.6533 12.6687L25.1332 16.2964L22.0182 18.5425L22.3889 14.7311L25.6533 12.6687V12.6687Z" fill="#00B159"></path>
  <path d="M14.247 19.9589C14.2468 19.9554 14.2453 19.9523 14.2449 19.9489C14.2434 19.9345 14.2397 19.9204 14.2341 19.9069C14.2306 19.8987 14.2263 19.8908 14.2214 19.8832C14.2185 19.8786 14.2158 19.8741 14.2124 19.8699C14.2063 19.8622 14.1994 19.8551 14.1919 19.8485C14.1884 19.8453 14.1852 19.8418 14.1814 19.8388L14.1785 19.836L12.7047 18.7558L14.0599 17.9357C14.114 17.9029 14.1451 17.8476 14.1421 17.7895L14.1284 17.5008L15.9253 18.7326L15.9602 22.4732L14.3072 21.2234L14.247 19.9589ZM7.01269 15.7672L7.84601 20.8819L3.89666 17.5404L2.75307 12.5798L7.01269 15.7672ZM13.7643 17.7098L8.25053 21.046L7.3906 15.7682L13.5233 12.6331L13.7643 17.7098ZM13.0552 2.80018L13.3832 9.68655L6.89457 12.7191L5.69127 5.34159L13.0552 2.80018ZM5.31213 5.3342L6.49523 12.5874L2.03391 9.46462L0.457058 2.62286L5.31224 5.3343L5.31213 5.3342ZM5.38099 23.9768L4.53803 20.3185L8.29562 23.6376L8.89748 27.329L5.38099 23.9768ZM14.0704 24.1098L9.30617 27.5186L8.67262 23.6344L13.8882 20.2829L14.0704 24.1098ZM20.0512 19.8272L16.3341 22.49L16.2993 18.735L20.2991 16.1654L20.0512 19.8272ZM20.5701 17.6947L20.6961 15.8343C20.6961 15.8322 20.6954 15.8303 20.6954 15.8282C20.6954 15.8258 20.6964 15.8235 20.6963 15.8209C20.6962 15.8136 20.694 15.8065 20.6928 15.7993C20.6918 15.7941 20.6918 15.7889 20.6904 15.7838C20.6867 15.7708 20.6814 15.7583 20.6745 15.7464C20.6739 15.7455 20.6737 15.7443 20.6731 15.7433C20.665 15.7304 20.6551 15.7185 20.6435 15.7079C20.6412 15.7057 20.6384 15.7041 20.6359 15.7021C20.6284 15.6957 20.6211 15.6892 20.6124 15.6838L18.1084 14.1986L18.1448 12.5687L22.0854 14.7742L21.734 18.4223L20.5701 17.6947ZM22.1159 18.3511L22.4602 14.7777L25.5703 12.7785L25.0476 16.2523L22.1159 18.3511ZM25.9999 12.4059C25.9997 12.4027 25.9984 12.3998 25.9979 12.3966C25.997 12.3907 25.9958 12.3848 25.9942 12.3789C25.9906 12.3642 25.9848 12.35 25.977 12.3367C25.9717 12.328 25.9655 12.3198 25.9586 12.3121C25.9549 12.308 25.9515 12.3038 25.9474 12.2999C25.9387 12.292 25.9291 12.2849 25.9187 12.2787C25.9154 12.2767 25.9131 12.2738 25.9095 12.272C25.9089 12.2716 25.9079 12.2715 25.9071 12.271C25.906 12.2705 25.9051 12.2696 25.904 12.269L21.6475 10.1507C21.6186 10.1363 21.586 10.1291 21.553 10.1298C21.5199 10.1305 21.4877 10.1391 21.4596 10.1546L17.8669 12.1272C17.8612 12.1303 17.8566 12.1347 17.8513 12.1384C17.8449 12.1428 17.8383 12.1468 17.8326 12.1519C17.8265 12.1573 17.8218 12.1635 17.8168 12.1696C17.8123 12.1749 17.8072 12.1798 17.8036 12.1855C17.7989 12.1926 17.7959 12.2003 17.7924 12.2079C17.79 12.2136 17.7866 12.2188 17.7848 12.225C17.7822 12.2332 17.7815 12.2417 17.7804 12.2503C17.7797 12.2558 17.7778 12.2611 17.7776 12.2667L17.7394 13.9797L16.2779 13.1129C16.2483 13.0952 16.2137 13.0855 16.1781 13.0849C16.1425 13.0843 16.1075 13.0928 16.0772 13.1095L13.9747 14.2639L13.8836 12.3441C13.8834 12.3401 13.8817 12.3364 13.8813 12.3324C13.8803 12.324 13.8787 12.3157 13.8765 12.3075C13.8746 12.3015 13.8719 12.2958 13.8694 12.29C13.8664 12.2828 13.8629 12.2759 13.8588 12.2692C13.855 12.2633 13.8506 12.258 13.8461 12.2525C13.8415 12.2466 13.8365 12.2411 13.8311 12.2358C13.8255 12.2306 13.8193 12.2261 13.8128 12.2215C13.8087 12.2186 13.8055 12.2149 13.8011 12.2122L11.6129 10.8922L13.6611 9.93494C13.6926 9.92011 13.7187 9.89756 13.7365 9.86991C13.7542 9.84226 13.7629 9.81066 13.7614 9.77877L13.4174 2.55235C13.417 2.5435 13.4147 2.53502 13.4127 2.52644C13.4119 2.52279 13.4117 2.51914 13.4107 2.51568C13.4065 2.50127 13.4001 2.48745 13.3916 2.47463C13.3901 2.47226 13.3879 2.47034 13.3863 2.46815C13.379 2.45787 13.3703 2.44835 13.3606 2.43978C13.3571 2.43668 13.3532 2.43404 13.3494 2.43121C13.344 2.4272 13.3392 2.42264 13.3334 2.41917C13.3288 2.41643 13.3237 2.41497 13.3189 2.4126C13.3164 2.41142 13.3146 2.40959 13.3121 2.4085L7.7935 0.0167767C7.75086 -0.0018296 7.70192 -0.00509293 7.6567 0.00765493L0.129926 2.11332L0.128403 2.11405C0.125356 2.11487 0.122715 2.11678 0.119669 2.1177C0.105675 2.12219 0.0923403 2.12819 0.0799577 2.13557L0.0788405 2.13603C0.0746765 2.13868 0.0717312 2.14242 0.0679734 2.14533C0.0584265 2.15236 0.0488797 2.15938 0.0410594 2.16805C0.0354735 2.17425 0.0317157 2.18137 0.0271454 2.18812C0.0225751 2.19496 0.017497 2.20125 0.0139423 2.20855C0.00987984 2.21731 0.0078486 2.22661 0.00561423 2.23591C0.0040908 2.24157 0.00134862 2.24668 0.000434562 2.25233C0.000332999 2.25325 0.000637686 2.25407 0.000434562 2.25489C-0.00058106 2.26337 0.000434562 2.27185 0.000942372 2.28043C0.00124706 2.28836 0.00084081 2.29621 0.00236424 2.30387C0.00266893 2.30515 0.00236424 2.30633 0.00266893 2.30752L1.6821 9.59296C1.69124 9.63191 1.7149 9.66667 1.75015 9.6912L4.02961 11.2869L2.38166 11.9916C2.37861 11.9929 2.37638 11.9949 2.37354 11.9962C2.371 11.9975 2.36825 11.9978 2.36582 11.9991C2.36216 12.0011 2.35972 12.004 2.35637 12.0062C2.34699 12.012 2.33822 12.0186 2.33017 12.0259C2.3256 12.03 2.32103 12.034 2.31697 12.0385C2.30915 12.0475 2.30235 12.0571 2.29665 12.0672C2.29462 12.0709 2.29188 12.0744 2.29005 12.0782C2.28332 12.0922 2.27878 12.107 2.27654 12.1221V12.124C2.27624 12.1263 2.27675 12.1287 2.27654 12.1311C2.27543 12.1448 2.27614 12.1585 2.27878 12.1719C2.27908 12.1737 2.27868 12.1754 2.27908 12.1772L3.54252 17.6601C3.55034 17.6941 3.56943 17.7247 3.59736 17.7483L5.18396 19.0905L4.13259 19.6681C4.11921 19.6756 4.10693 19.6846 4.09603 19.6948C4.09298 19.6975 4.09095 19.7005 4.08831 19.7033C4.07917 19.713 4.07145 19.7233 4.06495 19.7345C4.05428 19.7523 4.04726 19.7717 4.04423 19.7918C4.0422 19.8079 4.04372 19.8239 4.04677 19.8396C4.04718 19.8413 4.04667 19.8431 4.04708 19.8449L5.02593 24.0914C5.03294 24.1215 5.04909 24.1495 5.07296 24.1722L9.03205 27.9473C9.03804 27.9529 9.04495 27.9573 9.05155 27.9622C9.05399 27.964 9.05602 27.9659 9.05856 27.9676C9.07095 27.9756 9.08395 27.9822 9.09796 27.9873C9.09857 27.9876 9.09898 27.988 9.09979 27.9882C9.10081 27.9887 9.10223 27.9885 9.10345 27.9889C9.12427 27.9958 9.1461 28 9.16835 28C9.19131 27.9997 9.21401 27.9955 9.23528 27.9878C9.23995 27.9861 9.24492 27.9853 9.24949 27.9832C9.25721 27.9799 9.2629 27.9746 9.26971 27.9704C9.27458 27.9677 9.28017 27.9663 9.28474 27.9631L14.3776 24.3189C14.4243 24.2854 14.4503 24.234 14.4478 24.1806L14.3288 21.6785L16.0303 22.9647C16.0332 22.967 16.0371 22.9678 16.0402 22.9699C16.0499 22.9763 16.0591 22.983 16.0701 22.9878C16.0738 22.9892 16.0775 22.9899 16.0812 22.9913C16.0858 22.9929 16.0903 22.9942 16.095 22.9954C16.1133 23.0006 16.1317 23.0042 16.1505 23.0042C16.1688 23.0042 16.1869 23.0008 16.2049 22.9959C16.2089 22.9947 16.213 22.9935 16.2173 22.9921C16.2215 22.9906 16.2259 22.9899 16.2301 22.9881C16.2395 22.9841 16.2471 22.9783 16.2555 22.9731C16.2591 22.9708 16.2634 22.9699 16.2668 22.9674L20.3493 20.0434C20.3909 20.0133 20.416 19.9695 20.4193 19.9219L20.5435 18.087L21.7856 18.8636C21.7883 18.8651 21.7912 18.8657 21.7937 18.8671C21.7974 18.8691 21.8001 18.8721 21.8039 18.8739C21.8112 18.8773 21.819 18.8791 21.8265 18.8816C21.8316 18.8834 21.8366 18.8855 21.842 18.8868C21.8584 18.8909 21.8753 18.8936 21.8922 18.8936C21.9104 18.8936 21.9287 18.8903 21.9467 18.8854C21.9508 18.8843 21.9548 18.8831 21.9589 18.8817C21.9629 18.8803 21.9674 18.8795 21.9716 18.8779C21.9817 18.8735 21.9905 18.8674 21.9994 18.8617C22.0023 18.8598 22.0059 18.8591 22.0087 18.8571L25.339 16.4732C25.3766 16.4462 25.4013 16.4071 25.4078 16.3642L25.9986 12.4381C25.9992 12.4339 25.9981 12.4299 25.9984 12.4257C25.9988 12.4191 26.0003 12.4127 25.9999 12.4059Z" fill="black"></path>
</svg>
