<?xml version="1.0" encoding="UTF-8"?>
<svg xmlns="http://www.w3.org/2000/svg" width="28" height="20" viewBox="0 0 28 20" fill="none">
  <path d="M27.3319 19.4574H22.4978C22.4099 19.4573 22.3229 19.4397 22.2419 19.4057C22.1608 19.3717 22.0873 19.3219 22.0257 19.2592C21.9002 19.1314 21.8299 18.9594 21.8301 18.7803V0.67712C21.8301 0.497732 21.9004 0.325462 22.0257 0.198466C22.0873 0.135729 22.1608 0.0858731 22.2418 0.0518003C22.3229 0.0177275 22.4099 0.000119087 22.4978 0H27.3319C27.509 0 27.6787 0.0711856 27.804 0.198466C27.9293 0.325462 27.9996 0.497732 27.9996 0.67712V18.7803C27.9996 18.9597 27.9293 19.1319 27.804 19.2592C27.7424 19.3219 27.6689 19.3717 27.5879 19.4057C27.5068 19.4398 27.4198 19.4573 27.3319 19.4574Z" fill="url(#paint0_linear_1970_2197)"></path>
  <path d="M4.72021 19.3864L0.370743 17.2143C0.211972 17.1351 0.091061 16.9961 0.0344604 16.8279C0.00640514 16.7447 -0.00469811 16.6567 0.00180619 16.5691C0.00831048 16.4815 0.0322904 16.3961 0.0723312 16.318L8.14112 0.368034C8.22184 0.209493 8.36199 0.0893159 8.53099 0.0337295C8.69999 -0.021857 8.88412 -0.00833985 9.04319 0.0713309L13.3926 2.24193C13.5515 2.32166 13.6726 2.46119 13.7286 2.62975C13.7847 2.79775 13.7714 2.98141 13.6911 3.14002L5.62256 19.0899C5.54173 19.2485 5.40151 19.3686 5.23247 19.4241C5.06342 19.4796 4.87928 19.4661 4.72021 19.3864Z" fill="url(#paint1_linear_1970_2197)"></path>
  <path d="M17.6181 19.3868L20.8688 1.77682C20.9019 1.60185 20.8683 1.42081 20.7745 1.26941C20.7302 1.19689 20.6718 1.13405 20.6026 1.08463C20.5335 1.03522 20.4551 1.00025 20.3722 0.981819L15.8735 0.0134053C15.7915 -0.00427965 15.7067 -0.00446861 15.6246 0.0128513C15.5425 0.0301712 15.465 0.0646107 15.3971 0.11392C15.327 0.164094 15.2674 0.227678 15.222 0.300996C15.1752 0.375712 15.1431 0.458611 15.1272 0.545307L11.8763 18.1553C11.8438 18.3302 11.8776 18.5108 11.9711 18.6621C12.0154 18.7347 12.0739 18.7975 12.143 18.847C12.2121 18.8965 12.2905 18.9316 12.3734 18.9503L16.8721 19.9187C16.9538 19.9364 17.0375 19.9364 17.1193 19.9193C17.2013 19.9016 17.2793 19.8675 17.3485 19.8182C17.4179 19.7689 17.4772 19.7052 17.5236 19.6311C17.5697 19.5571 17.6019 19.4742 17.6181 19.3868Z" fill="url(#paint2_linear_1970_2197)"></path>
  <defs>
    <linearGradient id="paint0_linear_1970_2197" x1="15.9629" y1="13.0774" x2="29.0526" y2="8.32021" gradientUnits="userSpaceOnUse">
      <stop offset="0.02" stop-color="#B02DE9"></stop>
      <stop offset="0.8" stop-color="#6D00CC"></stop>
    </linearGradient>
    <linearGradient id="paint1_linear_1970_2197" x1="4.31074" y1="10.8327" x2="18.4019" y2="4.69899" gradientUnits="userSpaceOnUse">
      <stop stop-color="#FF00FF"></stop>
      <stop offset="0.18" stop-color="#E80DF9"></stop>
      <stop offset="0.54" stop-color="#C024ED"></stop>
      <stop offset="0.73" stop-color="#B02DE9"></stop>
    </linearGradient>
    <linearGradient id="paint2_linear_1970_2197" x1="2.01501" y1="15.6077" x2="29.7103" y2="6.05567" gradientUnits="userSpaceOnUse">
      <stop offset="0.02" stop-color="#FF00FF"></stop>
      <stop offset="0.09" stop-color="#E80DF9"></stop>
      <stop offset="0.23" stop-color="#C024ED"></stop>
      <stop offset="0.3" stop-color="#B02DE9"></stop>
      <stop offset="0.42" stop-color="#A42BE3"></stop>
      <stop offset="0.63" stop-color="#8527D5"></stop>
      <stop offset="0.85" stop-color="#6021C3"></stop>
    </linearGradient>
  </defs>
</svg>
