<?xml version="1.0" encoding="UTF-8"?>
<svg xmlns="http://www.w3.org/2000/svg" width="28" height="28" viewBox="0 0 28 28" fill="none">
  <path d="M28 14C28 21.7 21.7 28 14 28C6.3 28 0 21.7 0 14C0 6.3 6.3 0 14 0C21.7 0 28 6.3 28 14Z" fill="#4353FF"></path>
  <path d="M18.2706 12.2008C18.2706 12.2008 17.0596 15.9948 16.9686 16.3168C16.9336 15.9948 16.0516 9.17676 16.0516 9.17676C13.9866 9.17676 12.8876 10.6398 12.3066 12.2008C12.3066 12.2008 10.8366 16.0088 10.7176 16.3308C10.7106 16.0298 10.4936 12.2428 10.4936 12.2428C10.3676 10.3388 8.63161 9.18376 7.22461 9.18376L8.91861 19.5158C11.0816 19.5088 12.2436 18.0458 12.8526 16.4918C12.8526 16.4918 14.1476 13.1318 14.2036 12.9778C14.2176 13.1248 15.1346 19.5158 15.1346 19.5158C17.2976 19.5158 18.4666 18.1438 19.0966 16.6458L22.1206 9.17676C19.9786 9.17676 18.8516 10.6398 18.2706 12.2008Z" fill="white"></path>
</svg>
