<?xml version="1.0" encoding="UTF-8"?>
<svg xmlns="http://www.w3.org/2000/svg" width="37" height="14" viewBox="0 0 37 14" fill="none">
  <path d="M20.6152 0.265265C19.9203 0.61272 19.6191 1.2613 19.6191 3.02174C19.6191 3.02174 19.9666 2.67429 20.5225 2.46581C20.9279 2.31525 21.2174 2.11836 21.4259 1.96779C22.0282 1.5161 22.1208 0.971757 22.1208 0.0220464C22.1092 0.0220464 21.1595 -0.0358627 20.6152 0.265265Z" fill="#FBBD71"></path>
  <path d="M16.3651 0.670912C15.7629 1.16893 15.6123 2.02599 15.6123 2.02599L13.6666 9.48469L12.0683 3.38106C11.9177 2.73248 11.6166 1.93333 11.1649 1.3774C10.609 0.670912 9.45078 0.624584 9.31179 0.624584C9.20756 0.624584 8.06096 0.670912 7.4587 1.3774C7.00701 1.93333 6.70588 2.73248 6.55532 3.38106L5.04968 9.48469L3.10393 2.02599C3.10393 2.02599 2.95337 1.22684 2.35111 0.670912C1.4014 -0.186144 0 0.022329 0 0.022329L3.70619 13.9784C3.70619 13.9784 4.9107 14.0827 5.51295 13.7815C6.3121 13.3762 6.71746 13.0866 7.16915 11.1756C7.62085 9.47311 8.82536 4.51608 8.91801 4.16863C8.96434 4.01806 9.06858 3.56637 9.3697 3.56637C9.67083 3.56637 9.77507 3.97173 9.82139 4.16863C9.92563 4.51608 11.1186 9.47311 11.5703 11.1756C12.0683 13.0751 12.4157 13.3762 13.2265 13.7815C13.8287 14.0827 15.0332 13.9784 15.0332 13.9784L18.7162 0.022329C18.7162 0.022329 17.3148 -0.174562 16.3651 0.670912ZM22.1097 2.26921C22.1097 2.26921 21.8549 2.61666 21.3569 2.91779C21.0094 3.11468 20.7083 3.21892 20.3609 3.41581C19.7586 3.71693 19.608 4.01806 19.608 4.46975V13.9321C19.608 13.9321 20.5578 14.0363 21.16 13.7352C21.9592 13.3299 22.1097 12.9361 22.1097 11.2335V2.82513V2.26921ZM31.3173 7.02934L36.0195 0.0686564C36.0195 0.0686564 34.0738 -0.278799 33.0661 0.624584C32.4176 1.18051 31.769 2.22288 31.769 2.22288L30.0664 4.72455C29.9622 4.87512 29.8695 4.97935 29.719 4.97935C29.5684 4.97935 29.4179 4.82879 29.3715 4.72455L27.669 2.22288C27.669 2.22288 26.9741 1.22684 26.3718 0.624584C25.3758 -0.278799 23.4185 0.0686564 23.4185 0.0686564L27.9701 7.01776L23.3142 13.9669C23.3142 13.9669 25.3642 14.2217 26.3718 13.3183C27.0204 12.7623 27.6227 11.8126 27.6227 11.8126L29.3252 9.31096C29.4294 9.1604 29.5221 9.05616 29.6727 9.05616C29.8232 9.05616 29.9738 9.20672 30.0201 9.31096L31.7226 11.8126C31.7226 11.8126 32.3712 12.7623 32.9735 13.3183C33.9695 14.2217 35.9732 13.9669 35.9732 13.9669L31.3173 7.02934Z" fill="#FBBD71"></path>
</svg>
