<?xml version="1.0" encoding="UTF-8"?>
<svg xmlns="http://www.w3.org/2000/svg" width="29" height="17" viewBox="0 0 29 17" fill="none">
  <path fill-rule="evenodd" clip-rule="evenodd" d="M28.2746 1.66384C29.2788 3.3246 28.8154 5.52608 27.1546 6.53026C26.0732 7.22546 24.7214 7.22546 23.6786 6.64613C23.5627 6.60751 23.4855 6.56888 23.2924 6.53026C23.0993 6.49164 22.8675 6.53026 22.6358 6.6075C22.5199 6.64613 22.4041 6.72337 22.2882 6.76199C21.593 7.22546 21.3612 8.1524 21.7861 8.8476L23.4082 11.4739C24.4124 13.1347 23.9489 15.3362 22.2882 16.3403C20.666 17.3831 18.4646 16.8811 17.4604 15.2203L15.8382 12.6712C15.3748 11.9374 14.4478 11.7443 13.7526 12.1691C13.3278 12.4395 13.0574 12.9416 13.0574 13.4437C13.0574 14.641 12.4781 15.7996 11.3967 16.4562C9.77454 17.499 7.57306 16.9969 6.56888 15.3362L0.543795 5.64195C-0.499009 3.98118 0.00308165 1.77971 1.66384 0.775529C3.28598 -0.267275 5.48746 0.234816 6.49164 1.89558L8.11378 4.48328C8.53862 5.17848 9.46556 5.41021 10.1608 4.98537H10.1994C10.6629 4.71501 10.8946 4.21292 10.8946 3.74945C10.8946 2.55216 11.4739 1.35486 12.5553 0.698284C14.1775 -0.34452 16.379 0.157571 17.3831 1.81833L19.0053 4.44465C19.4688 5.17848 20.3957 5.37159 21.0909 4.94674C21.2454 4.83088 21.3999 4.67639 21.5544 4.40603C21.5157 4.5219 21.5157 4.48328 21.5544 4.36741C21.6702 4.1743 21.7088 4.01981 21.7475 3.90394C21.7861 3.78807 21.7861 3.71083 21.8247 3.59496C21.9406 2.24318 22.404 1.239 23.4855 0.543795C25.069 -0.499009 27.2318 0.00308165 28.2746 1.66384Z" fill="#67EADD"></path>
</svg>
