<?xml version="1.0" encoding="UTF-8"?>
<svg xmlns="http://www.w3.org/2000/svg" width="29" height="29" viewBox="0 0 29 29" fill="none">
  <circle cx="22.3686" cy="9.8842" r="2.60099" fill="#F47C68"></circle>
  <path d="M12.6688 0.0975437C9.21191 0.563642 6.35058 2.02667 3.92946 4.56431C2.03918 6.55818 0.860986 8.79804 0.213628 11.6464C-0.0712094 12.9152 -0.0712094 16.1261 0.213628 17.395C0.899828 20.4375 2.07802 22.5868 4.2402 24.7619C6.493 27.0018 8.66813 28.167 11.892 28.8402C13.0054 29.0733 16.2034 29.0474 17.3557 28.7885C20.3983 28.1023 22.5475 26.9241 24.7226 24.7619C26.8848 22.5868 28.063 20.4375 28.7492 17.395C29.034 16.1261 29.034 12.9152 28.7492 11.6464C28.063 8.60383 26.8848 6.4546 24.7226 4.27948C22.9618 2.51866 21.2787 1.457 19.0776 0.731954C17.2262 0.110491 14.5073 -0.1614 12.6688 0.0975437ZM11.0504 8.5132V12.9023L11.8402 12.3844C12.9536 11.6594 13.9247 11.3357 15.1417 11.258C18.3267 11.0508 21.0715 12.9541 21.9778 15.9967C22.2497 16.903 22.2497 18.612 21.9778 19.5183C21.4858 21.2014 20.1523 22.8457 18.6892 23.5837C16.5529 24.6713 13.847 24.5029 11.8402 23.1564L11.0634 22.6386L11.0245 23.3118L10.9857 23.9721H9.75569H8.52571L8.48687 14.6502L8.46097 5.31525L9.58738 4.65494C10.2088 4.29242 10.7915 4.03348 10.8821 4.05937C11.0116 4.11116 11.0504 5.06925 11.0504 8.5132ZM22.9488 8.2931C23.4797 8.57793 23.7386 9.05698 23.7386 9.74318C23.7386 10.2481 23.6739 10.4035 23.2984 10.779C22.9359 11.1415 22.7676 11.2192 22.3015 11.2192C21.201 11.2192 20.4889 10.3905 20.6831 9.35476C20.7608 8.94046 21.2787 8.34489 21.6671 8.20247C22.0296 8.073 22.5863 8.11184 22.9488 8.2931Z" fill="#063D59"></path>
  <path d="M14.5466 13.796C13.3813 14.1715 12.3974 15.039 11.9183 16.1265C11.5429 16.9551 11.5429 18.5606 11.9183 19.3892C12.2808 20.2049 13.0318 21.0076 13.8216 21.4219C14.3912 21.7197 14.6372 21.7715 15.6471 21.7715C17.0324 21.7715 17.7186 21.5125 18.5602 20.671C19.4018 19.8294 19.6607 19.1432 19.6607 17.7579C19.6607 16.3855 19.4018 15.6863 18.5991 14.8836C17.8352 14.1197 17.0195 13.7701 15.8543 13.7313C15.3105 13.7054 14.7279 13.7313 14.5466 13.796Z" fill="#063D59"></path>
</svg>
