<?xml version="1.0" encoding="UTF-8"?>
<svg xmlns="http://www.w3.org/2000/svg" width="28" height="29" viewBox="0 0 28 29" fill="none">
  <path fill-rule="evenodd" clip-rule="evenodd" d="M14.0012 28.0145V22.5854C19.7478 22.5854 24.2087 16.8866 22.0019 10.8382C21.5966 9.72707 20.9533 8.71797 20.117 7.88159C19.2807 7.04521 18.2717 6.40178 17.1606 5.99637C11.1122 3.80585 5.41336 8.25039 5.41336 13.997H0C0 4.83817 8.85817 -2.30546 18.4621 0.69428C22.6532 2.01264 26.0024 5.34562 27.3045 9.53728C30.3048 19.1563 23.1769 28.0145 14.0012 28.0145Z" fill="#0080FF"></path>
  <path fill-rule="evenodd" clip-rule="evenodd" d="M8.62029 22.6012H14.0173V17.2041H8.62085L8.62029 22.6012ZM4.46122 26.7602H8.61972V22.6017H4.46122V26.7602ZM0.984375 22.6017H4.46122V19.1243H0.984375V22.6017Z" fill="#0080FF"></path>
</svg>
