<?xml version="1.0" encoding="UTF-8"?>
<svg xmlns="http://www.w3.org/2000/svg" width="28" height="22" viewBox="0 0 28 22" fill="none">
  <g clip-path="url(#clip0_1960_2210)">
    <path d="M17.767 6.05878H18.6214L21.0556 3.6822L21.1753 2.67382C16.6462 -1.2291 9.73212 -0.808554 5.73464 3.61345C4.62318 4.84184 3.81688 6.30286 3.37793 7.88419C3.64905 7.77533 3.9495 7.75814 4.23235 7.83377L9.09952 7.04998C9.09952 7.04998 9.34716 6.65006 9.47509 6.67527C11.6405 4.35369 15.2847 4.08326 17.7846 6.05878H17.767Z" fill="#EA4335"></path>
    <path d="M24.5229 7.88399C23.963 5.87295 22.8152 4.06473 21.2178 2.68164L17.8025 6.01619C19.2449 7.16667 20.0665 8.9004 20.0313 10.7189V11.3114C21.7108 11.3114 23.071 12.6406 23.071 14.2792C23.071 15.919 21.7096 17.2471 20.0313 17.2471H13.9505L13.3438 17.8475V21.4078L13.9505 22.0003H20.0313C23.517 22.0266 26.6096 19.8208 27.6448 16.571C28.6776 13.3201 27.4101 9.79076 24.5229 7.88399Z" fill="#4285F4"></path>
    <path d="M7.86136 21.9673H13.9421V17.2152H7.86136C7.42828 17.2152 6.9999 17.1247 6.60555 16.9482L5.75112 17.2061L3.30052 19.5827L3.08691 20.4169C4.46127 21.4298 6.13843 21.9741 7.86136 21.9673Z" fill="#34A853"></path>
    <path d="M7.86159 6.54985C4.48379 6.56933 1.49214 8.68121 0.414717 11.8061C-0.662703 14.9309 0.411195 18.38 3.08831 20.3899L6.61516 16.9465C5.08471 16.2716 4.40516 14.5138 5.09645 13.0196C5.78773 11.5253 7.58813 10.8618 9.11858 11.5368C9.79226 11.8347 10.3321 12.3618 10.6373 13.0196L14.1641 9.57615C12.663 7.66136 10.331 6.54183 7.86159 6.54985Z" fill="#FBBC05"></path>
  </g>
  <defs>
    <clipPath id="clip0_1960_2210">
      <rect width="28" height="22" fill="white"></rect>
    </clipPath>
  </defs>
</svg>
