<?xml version="1.0" encoding="UTF-8"?>
<svg xmlns="http://www.w3.org/2000/svg" width="28" height="28" viewBox="0 0 28 28" fill="none">
  <g clip-path="url(#clip0_1970_2220)">
    <path d="M23.8 0H4.2C1.8804 0 0 1.8804 0 4.2V23.8C0 26.1196 1.8804 28 4.2 28H23.8C26.1196 28 28 26.1196 28 23.8V4.2C28 1.8804 26.1196 0 23.8 0Z" fill="#440099"></path>
    <path d="M20.0703 5.41406H7.92969C6.72656 5.41406 6.28906 5.85156 6.28906 7.05469V20.9453C6.28906 22.1484 6.72656 22.5859 7.92969 22.5859H20.0703C21.2734 22.5859 21.7109 22.1484 21.7109 20.9453V7.05469C21.7109 5.85156 21.2188 5.41406 20.0703 5.41406Z" fill="#440099" stroke="white"></path>
    <path d="M9.95312 15.5312C13.0156 14 15.0938 13.8359 15.8047 14.1641C16.2969 14.3828 16.2969 14.9844 16.2969 14.9844V20.3984H18.1016V14.9297C18.1016 14.9297 18.0469 13.1797 16.625 12.5234C15.2031 11.8672 13.2344 12.4688 11.8125 12.8516V7.65625H9.95312M16.7344 10.6094C16.7344 10.6094 17.9375 9.40625 18.1016 7.65625H16.2422C15.9688 9.24219 14.875 10.6094 14.875 10.6094M9.95312 20.3438L11.9766 18.5391L9.95312 16.7344" fill="white"></path>
  </g>
  <defs>
    <clipPath id="clip0_1970_2220">
      <rect width="28" height="28" fill="white"></rect>
    </clipPath>
  </defs>
</svg>
