<?xml version="1.0" encoding="UTF-8"?>
<svg xmlns="http://www.w3.org/2000/svg" width="22" height="23" viewBox="0 0 22 23" fill="none">
  <path d="M21.9997 3.00331C21.9997 1.39802 20.6983 0.0966797 19.0931 0.0966797C17.6273 0.0966797 16.4156 1.18182 16.2159 2.59247L16.1865 2.57694C13.8094 1.50483 11.8071 3.40379 11.8071 3.40379L6.51074 8.72614L8.60347 10.7415L12.8665 6.55327C14.8571 4.56252 15.9411 5.90993 15.9411 5.90993C17.4396 7.1759 15.9927 8.67447 15.9927 8.67447L18.1372 10.7415C19.8883 8.85012 19.9899 7.19945 19.4576 5.88638C20.8907 5.70693 21.9997 4.48505 21.9997 3.00331Z" fill="#F9AE41"></path>
  <path d="M19.4849 16.3714C19.4949 16.3528 19.5005 16.3421 19.5005 16.3421C20.5727 13.9649 18.6736 11.9626 18.6736 11.9626L13.3512 6.66602L11.3359 8.75891L15.5241 13.0218C17.5148 15.0126 16.1674 16.0966 16.1674 16.0966C14.9015 17.5952 13.403 16.1482 13.403 16.1482L11.3359 18.2926C13.2272 20.0438 14.878 20.1453 16.191 19.613C16.3704 21.0462 17.5924 22.1552 19.0741 22.1552C20.6794 22.1552 21.9807 20.8539 21.9807 19.2486C21.9807 17.7828 20.8956 16.5711 19.4849 16.3714Z" fill="#EE4035"></path>
  <path d="M13.3964 11.4131L9.13338 15.6012C7.14263 17.5921 6.0587 16.2447 6.0587 16.2447C4.56013 14.9787 6.00702 13.4802 6.00702 13.4802L3.8627 11.4131C2.11153 13.3044 2.0099 14.955 2.54212 16.2681C1.10895 16.4476 0 17.6694 0 19.1513C0 20.7565 1.30134 22.0578 2.90671 22.0578C4.37249 22.0579 5.5842 20.9728 5.78383 19.5622C5.80247 19.5721 5.81325 19.5776 5.81325 19.5776C8.19042 20.65 10.1926 18.7508 10.1926 18.7508L15.4891 13.4283L13.3964 11.4131Z" fill="#4F91CD"></path>
  <path d="M6.47612 9.13338C4.48537 7.14263 5.83261 6.05861 5.83261 6.05861C7.09875 4.56005 8.59723 6.00702 8.59723 6.00702L10.6642 3.8627C8.77297 2.11153 7.12231 2.00999 5.80923 2.54221C5.62978 1.10895 4.40798 0 2.92598 0C1.32096 0 0.0197038 1.30134 0.0195312 2.90663C0.0195312 4.37249 1.10459 5.5842 2.51532 5.78383C2.5054 5.80247 2.49988 5.81334 2.49988 5.81334C1.42751 8.19033 3.32664 10.1926 3.32664 10.1926L8.64917 15.4891L10.6644 13.3964L6.47612 9.13338Z" fill="#7AC043"></path>
</svg>
