<?xml version="1.0" encoding="UTF-8"?>
<svg xmlns="http://www.w3.org/2000/svg" width="28" height="28" viewBox="0 0 28 28" fill="none">
  <g clip-path="url(#clip0_1963_2435)">
    <mask id="mask0_1963_2435" style="mask-type:luminance" maskUnits="userSpaceOnUse" x="0" y="0" width="28" height="28">
      <path d="M28 0H0V28H28V0Z" fill="white"></path>
    </mask>
    <g mask="url(#mask0_1963_2435)">
      <mask id="mask1_1963_2435" style="mask-type:luminance" maskUnits="userSpaceOnUse" x="0" y="0" width="28" height="28">
        <path d="M28 0H0V28H28V0Z" fill="white"></path>
      </mask>
      <g mask="url(#mask1_1963_2435)">
        <mask id="mask2_1963_2435" style="mask-type:alpha" maskUnits="userSpaceOnUse" x="-1" y="2" width="29" height="24">
          <path d="M17.8537 2.91699C18.1857 2.91699 18.5019 3.05836 18.7232 3.30573L27.596 13.2224C27.9923 13.6653 27.9923 14.3353 27.596 14.7783L18.7232 24.6949C18.5019 24.9423 18.1857 25.0837 17.8537 25.0837H1.15138C0.142921 25.0837 -0.390507 23.8906 0.281926 23.1391L8.45869 14.0003L0.281926 4.86159C-0.390507 4.11005 0.142921 2.91699 1.15138 2.91699H17.8537Z" fill="white"></path>
        </mask>
        <g mask="url(#mask2_1963_2435)">
          <path d="M18.3753 2.91699L8.45866 14.0003L-1.45801 2.91699H18.3753Z" fill="url(#paint0_linear_1963_2435)"></path>
          <g filter="url(#filter0_f_1963_2435)">
            <path d="M18.3753 3.0332L-1.45801 25.1999H18.3753L28.292 14.1165L18.3753 3.0332Z" fill="black" fill-opacity="0.24"></path>
          </g>
          <g filter="url(#filter1_f_1963_2435)">
            <path d="M18.3753 3.5L-1.45801 25.6667H18.3753L28.292 14.5833L18.3753 3.5Z" fill="black" fill-opacity="0.32"></path>
          </g>
          <path d="M-1.45801 25.0837L18.3753 2.91699L28.292 14.0003L18.3753 25.0837H-1.45801Z" fill="url(#paint1_linear_1963_2435)"></path>
          <path d="M-1.45801 25.0837L18.3753 2.91699L23.3337 8.45866L8.45866 25.0837H-1.45801Z" fill="url(#paint2_linear_1963_2435)"></path>
        </g>
      </g>
    </g>
  </g>
  <defs>
    <filter id="filter0_f_1963_2435" x="-2.25801" y="2.2332" width="31.35" height="23.767" color-interpolation-filters="sRGB">
      <feFlood flood-opacity="0" result="BackgroundImageFix"></feFlood>
      <feBlend mode="normal" in="SourceGraphic" in2="BackgroundImageFix" result="shape"></feBlend>
      <feGaussianBlur stdDeviation="0.4" result="effect1_foregroundBlur_1963_2435"></feGaussianBlur>
    </filter>
    <filter id="filter1_f_1963_2435" x="-9.45801" y="-4.5" width="45.75" height="38.167" color-interpolation-filters="sRGB">
      <feFlood flood-opacity="0" result="BackgroundImageFix"></feFlood>
      <feBlend mode="normal" in="SourceGraphic" in2="BackgroundImageFix" result="shape"></feBlend>
      <feGaussianBlur stdDeviation="4" result="effect1_foregroundBlur_1963_2435"></feGaussianBlur>
    </filter>
    <linearGradient id="paint0_linear_1963_2435" x1="12.542" y1="16.042" x2="8.45866" y2="2.91699" gradientUnits="userSpaceOnUse">
      <stop stop-color="#0D36A5"></stop>
      <stop offset="1" stop-color="#1152D4"></stop>
    </linearGradient>
    <linearGradient id="paint1_linear_1963_2435" x1="13.417" y1="2.91699" x2="13.417" y2="25.0837" gradientUnits="userSpaceOnUse">
      <stop stop-color="#84CAFF"></stop>
      <stop offset="1" stop-color="#61B1FB"></stop>
    </linearGradient>
    <linearGradient id="paint2_linear_1963_2435" x1="10.9378" y1="2.91699" x2="10.9378" y2="25.0837" gradientUnits="userSpaceOnUse">
      <stop stop-color="#3B90F5"></stop>
      <stop offset="1" stop-color="#2A78EE"></stop>
    </linearGradient>
    <clipPath id="clip0_1963_2435">
      <rect width="28" height="28" fill="white"></rect>
    </clipPath>
  </defs>
</svg>
