<?xml version="1.0" encoding="UTF-8"?>
<svg xmlns="http://www.w3.org/2000/svg" width="29" height="28" viewBox="0 0 29 28" fill="none">
  <path d="M14.0141 26.82C6.95526 26.82 1.234 21.0988 1.234 14.04C1.22537 6.97252 6.94663 1.25126 14.0141 1.25126C21.0729 1.25126 26.7942 6.97252 26.7942 14.0313C26.7942 21.0902 21.0729 26.82 14.0141 26.82ZM14.0055 0C6.28217 0 0 6.25629 0 13.945C0 21.6424 6.28217 27.8987 14.0055 27.8987C21.7287 27.8987 28.0195 21.6424 28.0195 13.9537C28.0195 6.25629 21.7374 0 14.0055 0Z" fill="#00A1DF"></path>
  <path d="M10.4592 20.2095C8.34527 19.2168 6.87801 16.9735 6.87801 14.3757C6.87801 13.0034 7.28367 11.7352 7.98244 10.6996L12.5908 17.5698H15.3792L19.9876 10.6996C20.6864 11.7352 21.092 13.0126 21.092 14.3757C21.092 16.8005 19.8154 18.906 17.9341 19.9945L18.8227 23.3943C22.2057 21.6516 24.5086 18.13 24.5086 14.0658C24.5086 10.2259 22.4459 6.87651 19.3745 5.04811L14.0245 13.3066L8.72489 5.01367C5.61736 6.83452 3.53027 10.2083 3.53027 14.0658C3.53027 18.2769 6.0079 21.9102 9.58828 23.5757L10.4592 20.2095Z" fill="#00A1DF"></path>
</svg>
