<?xml version="1.0" encoding="UTF-8"?>
<svg xmlns="http://www.w3.org/2000/svg" width="26" height="29" viewBox="0 0 26 29" fill="none">
  <path d="M22.3552 6.31172C22.3357 6.17012 22.2117 6.09176 22.1091 6.08312C22.0068 6.07459 19.8414 5.91408 19.8414 5.91408C19.8414 5.91408 18.3374 4.421 18.1723 4.25574C18.0072 4.09058 17.6846 4.14081 17.5594 4.17767C17.541 4.1831 17.2308 4.27882 16.7178 4.43759C16.2154 2.99193 15.3288 1.66344 13.769 1.66344C13.7259 1.66344 13.6816 1.66519 13.6372 1.66771C13.1936 1.08105 12.6441 0.826172 12.1695 0.826172C8.53596 0.826172 6.80003 5.36844 6.25575 7.67668C4.84385 8.11418 3.84084 8.4252 3.71272 8.46545C2.92462 8.71267 2.8997 8.7375 2.79621 9.48011C2.71834 10.0423 0.65625 25.9894 0.65625 25.9894L16.7245 29L25.4308 27.1166C25.4308 27.1166 22.3744 6.45331 22.3552 6.31172ZM15.8297 4.71225L14.4701 5.13306C14.4705 5.03724 14.471 4.94297 14.471 4.83988C14.471 3.94141 14.3463 3.21801 14.1462 2.64454C14.9499 2.7454 15.4852 3.65987 15.8297 4.71225ZM13.1492 2.8227C13.3727 3.38259 13.518 4.18611 13.518 5.27039C13.518 5.32587 13.5175 5.37659 13.517 5.4279C12.6328 5.70178 11.672 5.99914 10.709 6.29746C11.2497 4.21074 12.2632 3.20288 13.1492 2.8227ZM12.0697 1.80077C12.2265 1.80077 12.3845 1.85401 12.5357 1.95808C11.3712 2.50604 10.123 3.88613 9.5959 6.64214L7.37631 7.32957C7.99372 5.22743 9.45983 1.80077 12.0697 1.80077Z" fill="#95BF46"></path>
  <path d="M22.1095 6.08338C22.0072 6.07485 19.8417 5.91434 19.8417 5.91434C19.8417 5.91434 18.3378 4.42126 18.1727 4.256C18.1109 4.19451 18.0276 4.16299 17.9405 4.14941L16.7256 29.0001L25.4311 27.1168C25.4311 27.1168 22.3747 6.45357 22.3555 6.31198C22.336 6.17038 22.212 6.09202 22.1095 6.08338Z" fill="#5E8E3E"></path>
  <path d="M13.7696 10.8934L12.6961 14.0867C12.6961 14.0867 11.7555 13.5847 10.6026 13.5847C8.91231 13.5847 8.82725 14.6454 8.82725 14.9127C8.82725 16.3712 12.629 16.93 12.629 20.3462C12.629 23.0339 10.9244 24.7646 8.62582 24.7646C5.86758 24.7646 4.45703 23.048 4.45703 23.048L5.19557 20.6078C5.19557 20.6078 6.64549 21.8526 7.86895 21.8526C8.66839 21.8526 8.99358 21.2232 8.99358 20.7633C8.99358 18.8609 5.87456 18.776 5.87456 15.6499C5.87456 13.0188 7.76304 10.4727 11.5751 10.4727C13.0439 10.4727 13.7696 10.8934 13.7696 10.8934Z" fill="white"></path>
</svg>
