<?xml version="1.0" encoding="UTF-8"?>
<svg xmlns="http://www.w3.org/2000/svg" width="29" height="29" viewBox="0 0 29 29" fill="none">
  <mask id="mask0_1963_2371" style="mask-type:luminance" maskUnits="userSpaceOnUse" x="0" y="0" width="29" height="29">
    <path d="M0.108398 0.591797H28.1084V28.5918H0.108398V0.591797Z" fill="white"></path>
  </mask>
  <g mask="url(#mask0_1963_2371)">
    <path d="M2.09766 14.5897C2.09766 19.3438 4.86036 23.4518 8.8665 25.3989L3.13747 9.70194C2.45069 11.2398 2.09636 12.9054 2.09766 14.5897ZM22.2156 13.9837C22.2156 12.4994 21.6825 11.4714 21.2252 10.6714C20.6164 9.68206 20.046 8.84427 20.046 7.85497C20.046 6.75095 20.8831 5.72326 22.0625 5.72326C22.1158 5.72326 22.1663 5.72989 22.2184 5.73286C20.0814 3.77528 17.2346 2.58008 14.1078 2.58008C9.91203 2.58008 6.22058 4.73282 4.07308 7.99346C4.35485 8.00192 4.62064 8.00763 4.84597 8.00763C6.1022 8.00763 8.04676 7.8552 8.04676 7.8552C8.69419 7.81704 8.77052 8.76794 8.12401 8.8445C8.12401 8.8445 7.47315 8.92106 6.74917 8.95899L11.1228 21.968L13.7513 14.0853L11.8799 8.95877C11.2332 8.92083 10.6205 8.84427 10.6205 8.84427C9.97327 8.80634 10.0491 7.81681 10.6963 7.85497C10.6963 7.85497 12.6798 8.0074 13.8599 8.0074C15.1159 8.0074 17.0607 7.85497 17.0607 7.85497C17.7086 7.81681 17.7847 8.76772 17.1377 8.84427C17.1377 8.84427 16.4857 8.92083 15.7631 8.95877L20.1033 21.8693L21.3011 17.8661C21.8205 16.2049 22.2156 15.0118 22.2156 13.9837Z" fill="#00749A"></path>
    <path d="M14.3193 15.6398L10.7158 26.1105C11.8175 26.4352 12.9601 26.6001 14.1086 26.6C15.5072 26.6 16.8484 26.358 18.0969 25.9193C18.0634 25.8668 18.0348 25.8114 18.0114 25.7538L14.3193 15.6398ZM24.647 8.82715C24.6987 9.20971 24.7279 9.6206 24.7279 10.0621C24.7279 11.2809 24.5003 12.6509 23.8147 14.3639L20.1461 24.9706C23.7167 22.8885 26.1183 19.0202 26.1183 14.5893C26.1215 12.5752 25.6154 10.5931 24.647 8.82715Z" fill="#00749A"></path>
    <path d="M14.1086 0.589844C6.3891 0.589844 0.108398 6.87004 0.108398 14.5895C0.108398 22.3099 6.38887 28.5901 14.1086 28.5901C21.8279 28.5901 28.1095 22.3101 28.1095 14.5895C28.1093 6.87004 21.8279 0.589844 14.1086 0.589844ZM14.1086 27.9481C6.74309 27.9481 0.75034 21.9554 0.75034 14.5895C0.75034 7.22425 6.74287 1.23201 14.1086 1.23201C21.4739 1.23201 27.4662 7.22425 27.4662 14.5895C27.4662 21.9554 21.4737 27.9481 14.1086 27.9481Z" fill="#00749A"></path>
  </g>
</svg>
