<?xml version="1.0" encoding="UTF-8"?>
<svg xmlns="http://www.w3.org/2000/svg" width="325" height="90" viewBox="0 0 325 90" fill="none">
  <path d="M272.763 62.4855L272.75 62.4913C266.099 62.6669 260.556 57.6146 260.374 51.207C260.192 44.7994 265.436 39.4631 272.088 39.2875C272.31 39.2816 272.529 39.2816 272.75 39.2875C279.402 39.5128 284.601 44.8872 284.367 51.2919C284.149 57.3804 279.08 62.2659 272.763 62.4855ZM286.208 33.2896C283.026 30.9322 279.277 29.3873 275.305 28.8083V18.3892C278.225 17.0747 280.093 14.2594 280.109 11.1576V10.9183C280.109 6.48722 276.378 2.89505 271.776 2.89505H271.528C266.926 2.89505 263.196 6.48722 263.196 10.9183V11.1576C263.208 14.2594 265.082 17.0747 268 18.3892V28.8083C263.892 29.4139 260.021 31.0563 256.781 33.5643L227.106 11.3083C227.317 10.5727 227.428 9.81647 227.44 9.05727C227.449 4.06487 223.255 0.00891391 218.071 2.57337e-05C212.886 -0.0117646 208.677 4.02942 208.665 9.02182C208.656 14.0142 212.849 18.0702 218.034 18.079H218.04C219.666 18.0731 221.258 17.6537 222.66 16.8679L251.885 38.7635C246.513 46.5771 246.657 56.7627 252.247 64.4345L243.359 72.9954C242.641 72.7739 241.893 72.6557 241.138 72.6469C236.88 72.6498 233.431 75.9761 233.435 80.0764C233.438 84.1766 236.892 87.497 241.15 87.4941C245.402 87.4911 248.851 84.1707 248.854 80.0764C248.844 79.3497 248.722 78.6289 248.492 77.9376L257.284 69.4682C267.659 77.1607 282.545 75.2966 290.53 65.3059C298.519 55.3152 296.583 40.9791 286.208 33.2896ZM218.819 64.2814C212.194 64.2814 206.818 59.0864 206.818 52.6765C206.818 46.2665 212.194 41.0687 218.819 41.0687C225.448 41.0687 230.824 46.2665 230.824 52.6765C230.824 59.0864 225.448 64.2814 218.819 64.2814ZM240.054 52.4781H240.057C240.057 39.7603 228.748 30.3551 215.84 30.3551C204.229 30.3551 193.892 39.6169 193.892 53.1395V89.2796H204.752V69.7669C208.372 73.1234 212.128 74.6041 217.493 74.6041C229.621 74.6041 240.054 65.0175 240.054 52.4781ZM325 65.2274L322.42 74.6608C321.045 74.9032 319.647 75.0155 318.245 74.9918C309.34 74.9918 302.841 70.2781 302.841 60.9245V24.3553L313.416 19.6415V31.6431H322.997V40.7396H313.416V58.6932C313.416 62.7479 315.169 65.3959 321.334 65.3959V65.387C322.5 65.387 323.837 65.3072 325 65.2274ZM188.352 57.6595C188.352 68.2323 179.385 74.9949 168.236 74.9949C160.809 74.9949 154.607 71.9466 149.574 65.9461L157.439 57.9985C160.374 61.2148 162.451 64.254 168.847 64.254C172.902 64.254 176.441 61.1217 176.441 57.5754C176.441 46.0725 150.611 52.595 150.611 32.0433C150.611 20.9663 159.096 14.2848 170.831 14.2848C176.701 14.2848 183.875 17.498 187.411 22.1484L180.329 30.2671C177.561 27.3929 173.334 25.0227 170.131 25.0227C166.16 25.0227 162.534 26.7118 162.534 32.0433H162.515C162.515 41.9351 188.352 34.8455 188.352 57.6595ZM34.924 14.2848H46.1648V74.9949H34.9179V50.388H11.2408V74.9949H0V14.2848H11.2377V39.7169H34.924V14.2848ZM83.3568 30.3551H94.1761V55.7739C94.1699 66.389 85.0826 74.992 73.8698 74.9949C62.654 75.0008 53.5573 66.3949 53.5511 55.7739V30.3551H64.4107V55.7739C64.4107 60.7251 68.6523 64.7406 73.8822 64.7406C79.1153 64.7406 83.3568 60.7251 83.3568 55.7739V30.3551ZM122.797 64.2814C116.168 64.2814 110.795 59.0864 110.795 52.6736C110.795 46.2665 116.168 41.0687 122.797 41.0687C129.423 41.0687 134.801 46.2665 134.801 52.6736C134.801 59.0864 129.423 64.2814 122.797 64.2814ZM123.323 30.7334V30.7247C117.952 30.7247 114.202 32.2 110.576 35.5636V16.0704H99.7159V52.2026C99.7159 65.7269 110.05 74.9949 121.667 74.9949C134.548 74.9949 145.881 65.563 145.881 52.8642C145.881 40.3234 135.451 30.7334 123.323 30.7334Z" fill="#E3E3E3"></path>
</svg>
